%TF.GenerationSoftware,KiCad,Pcbnew,(5.1.6)-1*%
%TF.CreationDate,2020-07-16T10:06:32+01:00*%
%TF.ProjectId,Jag_Speedy_VRConditioner,4a61675f-5370-4656-9564-795f5652436f,rev?*%
%TF.SameCoordinates,Original*%
%TF.FileFunction,Paste,Top*%
%TF.FilePolarity,Positive*%
%FSLAX46Y46*%
G04 Gerber Fmt 4.6, Leading zero omitted, Abs format (unit mm)*
G04 Created by KiCad (PCBNEW (5.1.6)-1) date 2020-07-16 10:06:32*
%MOMM*%
%LPD*%
G01*
G04 APERTURE LIST*
%ADD10R,1.600000X0.410000*%
G04 APERTURE END LIST*
D10*
%TO.C,IC1*%
X145594700Y-84772500D03*
X145594700Y-84137500D03*
X145594700Y-83502500D03*
X145594700Y-82867500D03*
X145594700Y-82232500D03*
X145594700Y-81597500D03*
X145594700Y-80962500D03*
X145594700Y-80327500D03*
X150903300Y-80327500D03*
X150903300Y-80962500D03*
X150903300Y-81597500D03*
X150903300Y-82232500D03*
X150903300Y-82867500D03*
X150903300Y-83502500D03*
X150903300Y-84137500D03*
X150903300Y-84772500D03*
%TD*%
%TO.C,C1*%
G36*
G01*
X138886250Y-79892500D02*
X137973750Y-79892500D01*
G75*
G02*
X137730000Y-79648750I0J243750D01*
G01*
X137730000Y-79161250D01*
G75*
G02*
X137973750Y-78917500I243750J0D01*
G01*
X138886250Y-78917500D01*
G75*
G02*
X139130000Y-79161250I0J-243750D01*
G01*
X139130000Y-79648750D01*
G75*
G02*
X138886250Y-79892500I-243750J0D01*
G01*
G37*
G36*
G01*
X138886250Y-81767500D02*
X137973750Y-81767500D01*
G75*
G02*
X137730000Y-81523750I0J243750D01*
G01*
X137730000Y-81036250D01*
G75*
G02*
X137973750Y-80792500I243750J0D01*
G01*
X138886250Y-80792500D01*
G75*
G02*
X139130000Y-81036250I0J-243750D01*
G01*
X139130000Y-81523750D01*
G75*
G02*
X138886250Y-81767500I-243750J0D01*
G01*
G37*
%TD*%
%TO.C,R6*%
G36*
G01*
X138917500Y-92045750D02*
X138917500Y-92958250D01*
G75*
G02*
X138673750Y-93202000I-243750J0D01*
G01*
X138186250Y-93202000D01*
G75*
G02*
X137942500Y-92958250I0J243750D01*
G01*
X137942500Y-92045750D01*
G75*
G02*
X138186250Y-91802000I243750J0D01*
G01*
X138673750Y-91802000D01*
G75*
G02*
X138917500Y-92045750I0J-243750D01*
G01*
G37*
G36*
G01*
X140792500Y-92045750D02*
X140792500Y-92958250D01*
G75*
G02*
X140548750Y-93202000I-243750J0D01*
G01*
X140061250Y-93202000D01*
G75*
G02*
X139817500Y-92958250I0J243750D01*
G01*
X139817500Y-92045750D01*
G75*
G02*
X140061250Y-91802000I243750J0D01*
G01*
X140548750Y-91802000D01*
G75*
G02*
X140792500Y-92045750I0J-243750D01*
G01*
G37*
%TD*%
%TO.C,R2*%
G36*
G01*
X155722500Y-80466250D02*
X155722500Y-79553750D01*
G75*
G02*
X155966250Y-79310000I243750J0D01*
G01*
X156453750Y-79310000D01*
G75*
G02*
X156697500Y-79553750I0J-243750D01*
G01*
X156697500Y-80466250D01*
G75*
G02*
X156453750Y-80710000I-243750J0D01*
G01*
X155966250Y-80710000D01*
G75*
G02*
X155722500Y-80466250I0J243750D01*
G01*
G37*
G36*
G01*
X153847500Y-80466250D02*
X153847500Y-79553750D01*
G75*
G02*
X154091250Y-79310000I243750J0D01*
G01*
X154578750Y-79310000D01*
G75*
G02*
X154822500Y-79553750I0J-243750D01*
G01*
X154822500Y-80466250D01*
G75*
G02*
X154578750Y-80710000I-243750J0D01*
G01*
X154091250Y-80710000D01*
G75*
G02*
X153847500Y-80466250I0J243750D01*
G01*
G37*
%TD*%
%TO.C,C5*%
G36*
G01*
X138917500Y-83363750D02*
X138917500Y-84276250D01*
G75*
G02*
X138673750Y-84520000I-243750J0D01*
G01*
X138186250Y-84520000D01*
G75*
G02*
X137942500Y-84276250I0J243750D01*
G01*
X137942500Y-83363750D01*
G75*
G02*
X138186250Y-83120000I243750J0D01*
G01*
X138673750Y-83120000D01*
G75*
G02*
X138917500Y-83363750I0J-243750D01*
G01*
G37*
G36*
G01*
X140792500Y-83363750D02*
X140792500Y-84276250D01*
G75*
G02*
X140548750Y-84520000I-243750J0D01*
G01*
X140061250Y-84520000D01*
G75*
G02*
X139817500Y-84276250I0J243750D01*
G01*
X139817500Y-83363750D01*
G75*
G02*
X140061250Y-83120000I243750J0D01*
G01*
X140548750Y-83120000D01*
G75*
G02*
X140792500Y-83363750I0J-243750D01*
G01*
G37*
%TD*%
%TO.C,C2*%
G36*
G01*
X142696250Y-79892500D02*
X141783750Y-79892500D01*
G75*
G02*
X141540000Y-79648750I0J243750D01*
G01*
X141540000Y-79161250D01*
G75*
G02*
X141783750Y-78917500I243750J0D01*
G01*
X142696250Y-78917500D01*
G75*
G02*
X142940000Y-79161250I0J-243750D01*
G01*
X142940000Y-79648750D01*
G75*
G02*
X142696250Y-79892500I-243750J0D01*
G01*
G37*
G36*
G01*
X142696250Y-81767500D02*
X141783750Y-81767500D01*
G75*
G02*
X141540000Y-81523750I0J243750D01*
G01*
X141540000Y-81036250D01*
G75*
G02*
X141783750Y-80792500I243750J0D01*
G01*
X142696250Y-80792500D01*
G75*
G02*
X142940000Y-81036250I0J-243750D01*
G01*
X142940000Y-81523750D01*
G75*
G02*
X142696250Y-81767500I-243750J0D01*
G01*
G37*
%TD*%
%TO.C,R5*%
G36*
G01*
X138917500Y-86257750D02*
X138917500Y-87170250D01*
G75*
G02*
X138673750Y-87414000I-243750J0D01*
G01*
X138186250Y-87414000D01*
G75*
G02*
X137942500Y-87170250I0J243750D01*
G01*
X137942500Y-86257750D01*
G75*
G02*
X138186250Y-86014000I243750J0D01*
G01*
X138673750Y-86014000D01*
G75*
G02*
X138917500Y-86257750I0J-243750D01*
G01*
G37*
G36*
G01*
X140792500Y-86257750D02*
X140792500Y-87170250D01*
G75*
G02*
X140548750Y-87414000I-243750J0D01*
G01*
X140061250Y-87414000D01*
G75*
G02*
X139817500Y-87170250I0J243750D01*
G01*
X139817500Y-86257750D01*
G75*
G02*
X140061250Y-86014000I243750J0D01*
G01*
X140548750Y-86014000D01*
G75*
G02*
X140792500Y-86257750I0J-243750D01*
G01*
G37*
%TD*%
%TO.C,R4*%
G36*
G01*
X137942500Y-98746250D02*
X137942500Y-97833750D01*
G75*
G02*
X138186250Y-97590000I243750J0D01*
G01*
X138673750Y-97590000D01*
G75*
G02*
X138917500Y-97833750I0J-243750D01*
G01*
X138917500Y-98746250D01*
G75*
G02*
X138673750Y-98990000I-243750J0D01*
G01*
X138186250Y-98990000D01*
G75*
G02*
X137942500Y-98746250I0J243750D01*
G01*
G37*
G36*
G01*
X139817500Y-98746250D02*
X139817500Y-97833750D01*
G75*
G02*
X140061250Y-97590000I243750J0D01*
G01*
X140548750Y-97590000D01*
G75*
G02*
X140792500Y-97833750I0J-243750D01*
G01*
X140792500Y-98746250D01*
G75*
G02*
X140548750Y-98990000I-243750J0D01*
G01*
X140061250Y-98990000D01*
G75*
G02*
X139817500Y-98746250I0J243750D01*
G01*
G37*
%TD*%
%TO.C,R3*%
G36*
G01*
X138917500Y-94939750D02*
X138917500Y-95852250D01*
G75*
G02*
X138673750Y-96096000I-243750J0D01*
G01*
X138186250Y-96096000D01*
G75*
G02*
X137942500Y-95852250I0J243750D01*
G01*
X137942500Y-94939750D01*
G75*
G02*
X138186250Y-94696000I243750J0D01*
G01*
X138673750Y-94696000D01*
G75*
G02*
X138917500Y-94939750I0J-243750D01*
G01*
G37*
G36*
G01*
X140792500Y-94939750D02*
X140792500Y-95852250D01*
G75*
G02*
X140548750Y-96096000I-243750J0D01*
G01*
X140061250Y-96096000D01*
G75*
G02*
X139817500Y-95852250I0J243750D01*
G01*
X139817500Y-94939750D01*
G75*
G02*
X140061250Y-94696000I243750J0D01*
G01*
X140548750Y-94696000D01*
G75*
G02*
X140792500Y-94939750I0J-243750D01*
G01*
G37*
%TD*%
%TO.C,R1*%
G36*
G01*
X155760000Y-82756250D02*
X155760000Y-81843750D01*
G75*
G02*
X156003750Y-81600000I243750J0D01*
G01*
X156491250Y-81600000D01*
G75*
G02*
X156735000Y-81843750I0J-243750D01*
G01*
X156735000Y-82756250D01*
G75*
G02*
X156491250Y-83000000I-243750J0D01*
G01*
X156003750Y-83000000D01*
G75*
G02*
X155760000Y-82756250I0J243750D01*
G01*
G37*
G36*
G01*
X153885000Y-82756250D02*
X153885000Y-81843750D01*
G75*
G02*
X154128750Y-81600000I243750J0D01*
G01*
X154616250Y-81600000D01*
G75*
G02*
X154860000Y-81843750I0J-243750D01*
G01*
X154860000Y-82756250D01*
G75*
G02*
X154616250Y-83000000I-243750J0D01*
G01*
X154128750Y-83000000D01*
G75*
G02*
X153885000Y-82756250I0J243750D01*
G01*
G37*
%TD*%
%TO.C,C4*%
G36*
G01*
X135076250Y-79892500D02*
X134163750Y-79892500D01*
G75*
G02*
X133920000Y-79648750I0J243750D01*
G01*
X133920000Y-79161250D01*
G75*
G02*
X134163750Y-78917500I243750J0D01*
G01*
X135076250Y-78917500D01*
G75*
G02*
X135320000Y-79161250I0J-243750D01*
G01*
X135320000Y-79648750D01*
G75*
G02*
X135076250Y-79892500I-243750J0D01*
G01*
G37*
G36*
G01*
X135076250Y-81767500D02*
X134163750Y-81767500D01*
G75*
G02*
X133920000Y-81523750I0J243750D01*
G01*
X133920000Y-81036250D01*
G75*
G02*
X134163750Y-80792500I243750J0D01*
G01*
X135076250Y-80792500D01*
G75*
G02*
X135320000Y-81036250I0J-243750D01*
G01*
X135320000Y-81523750D01*
G75*
G02*
X135076250Y-81767500I-243750J0D01*
G01*
G37*
%TD*%
%TO.C,C3*%
G36*
G01*
X138917500Y-89151750D02*
X138917500Y-90064250D01*
G75*
G02*
X138673750Y-90308000I-243750J0D01*
G01*
X138186250Y-90308000D01*
G75*
G02*
X137942500Y-90064250I0J243750D01*
G01*
X137942500Y-89151750D01*
G75*
G02*
X138186250Y-88908000I243750J0D01*
G01*
X138673750Y-88908000D01*
G75*
G02*
X138917500Y-89151750I0J-243750D01*
G01*
G37*
G36*
G01*
X140792500Y-89151750D02*
X140792500Y-90064250D01*
G75*
G02*
X140548750Y-90308000I-243750J0D01*
G01*
X140061250Y-90308000D01*
G75*
G02*
X139817500Y-90064250I0J243750D01*
G01*
X139817500Y-89151750D01*
G75*
G02*
X140061250Y-88908000I243750J0D01*
G01*
X140548750Y-88908000D01*
G75*
G02*
X140792500Y-89151750I0J-243750D01*
G01*
G37*
%TD*%
M02*
