%TF.GenerationSoftware,KiCad,Pcbnew,(5.1.6)-1*%
%TF.CreationDate,2020-07-16T10:06:32+01:00*%
%TF.ProjectId,Jag_Speedy_VRConditioner,4a61675f-5370-4656-9564-795f5652436f,rev?*%
%TF.SameCoordinates,Original*%
%TF.FileFunction,Copper,L1,Top*%
%TF.FilePolarity,Positive*%
%FSLAX46Y46*%
G04 Gerber Fmt 4.6, Leading zero omitted, Abs format (unit mm)*
G04 Created by KiCad (PCBNEW (5.1.6)-1) date 2020-07-16 10:06:32*
%MOMM*%
%LPD*%
G01*
G04 APERTURE LIST*
%TA.AperFunction,ComponentPad*%
%ADD10O,2.400000X2.400000*%
%TD*%
%TA.AperFunction,ComponentPad*%
%ADD11C,2.400000*%
%TD*%
%TA.AperFunction,ComponentPad*%
%ADD12O,1.600000X1.600000*%
%TD*%
%TA.AperFunction,ComponentPad*%
%ADD13R,1.600000X1.600000*%
%TD*%
%TA.AperFunction,SMDPad,CuDef*%
%ADD14R,1.600000X0.410000*%
%TD*%
%TA.AperFunction,ViaPad*%
%ADD15C,0.600000*%
%TD*%
%TA.AperFunction,ViaPad*%
%ADD16C,0.800000*%
%TD*%
%TA.AperFunction,Conductor*%
%ADD17C,0.200000*%
%TD*%
%TA.AperFunction,Conductor*%
%ADD18C,0.250000*%
%TD*%
%TA.AperFunction,Conductor*%
%ADD19C,0.254000*%
%TD*%
G04 APERTURE END LIST*
D10*
%TO.P,R8,2*%
%TO.N,VR2-*%
X134620000Y-97790000D03*
D11*
%TO.P,R8,1*%
%TO.N,VR2+*%
X134620000Y-85090000D03*
%TD*%
D10*
%TO.P,R7,2*%
%TO.N,VR1+*%
X154940000Y-85090000D03*
D11*
%TO.P,R7,1*%
%TO.N,VR1-*%
X154940000Y-97790000D03*
%TD*%
D12*
%TO.P,J1,8*%
%TO.N,Output1*%
X151130000Y-95250000D03*
%TO.P,J1,4*%
%TO.N,VR2-*%
X143510000Y-87630000D03*
%TO.P,J1,7*%
%TO.N,Output2*%
X151130000Y-92710000D03*
%TO.P,J1,3*%
%TO.N,VR2+*%
X143510000Y-90170000D03*
%TO.P,J1,6*%
%TO.N,Ground*%
X151130000Y-90170000D03*
%TO.P,J1,2*%
%TO.N,VR1+*%
X143510000Y-92710000D03*
%TO.P,J1,5*%
%TO.N,5V*%
X151130000Y-87630000D03*
D13*
%TO.P,J1,1*%
%TO.N,VR1-*%
X143510000Y-95250000D03*
%TD*%
D14*
%TO.P,IC1,16*%
%TO.N,Net-(C1-Pad1)*%
X145594700Y-84772500D03*
%TO.P,IC1,15*%
%TO.N,Net-(C1-Pad2)*%
X145594700Y-84137500D03*
%TO.P,IC1,14*%
%TO.N,5V*%
X145594700Y-83502500D03*
%TO.P,IC1,13*%
%TO.N,Ground*%
X145594700Y-82867500D03*
%TO.P,IC1,12*%
%TO.N,N/C*%
X145594700Y-82232500D03*
%TO.P,IC1,11*%
%TO.N,Ground*%
X145594700Y-81597500D03*
%TO.P,IC1,10*%
%TO.N,Net-(C2-Pad1)*%
X145594700Y-80962500D03*
%TO.P,IC1,9*%
%TO.N,Net-(C2-Pad2)*%
X145594700Y-80327500D03*
%TO.P,IC1,8*%
%TO.N,Ground*%
X150903300Y-80327500D03*
%TO.P,IC1,7*%
%TO.N,N/C*%
X150903300Y-80962500D03*
%TO.P,IC1,6*%
%TO.N,Ground*%
X150903300Y-81597500D03*
%TO.P,IC1,5*%
%TO.N,Output2*%
X150903300Y-82232500D03*
%TO.P,IC1,4*%
%TO.N,Output1*%
X150903300Y-82867500D03*
%TO.P,IC1,3*%
%TO.N,Ground*%
X150903300Y-83502500D03*
%TO.P,IC1,2*%
%TO.N,N/C*%
X150903300Y-84137500D03*
%TO.P,IC1,1*%
%TO.N,Ground*%
X150903300Y-84772500D03*
%TD*%
%TO.P,C1,2*%
%TO.N,Net-(C1-Pad2)*%
%TA.AperFunction,SMDPad,CuDef*%
G36*
G01*
X138886250Y-79892500D02*
X137973750Y-79892500D01*
G75*
G02*
X137730000Y-79648750I0J243750D01*
G01*
X137730000Y-79161250D01*
G75*
G02*
X137973750Y-78917500I243750J0D01*
G01*
X138886250Y-78917500D01*
G75*
G02*
X139130000Y-79161250I0J-243750D01*
G01*
X139130000Y-79648750D01*
G75*
G02*
X138886250Y-79892500I-243750J0D01*
G01*
G37*
%TD.AperFunction*%
%TO.P,C1,1*%
%TO.N,Net-(C1-Pad1)*%
%TA.AperFunction,SMDPad,CuDef*%
G36*
G01*
X138886250Y-81767500D02*
X137973750Y-81767500D01*
G75*
G02*
X137730000Y-81523750I0J243750D01*
G01*
X137730000Y-81036250D01*
G75*
G02*
X137973750Y-80792500I243750J0D01*
G01*
X138886250Y-80792500D01*
G75*
G02*
X139130000Y-81036250I0J-243750D01*
G01*
X139130000Y-81523750D01*
G75*
G02*
X138886250Y-81767500I-243750J0D01*
G01*
G37*
%TD.AperFunction*%
%TD*%
%TO.P,R6,2*%
%TO.N,Net-(C2-Pad2)*%
%TA.AperFunction,SMDPad,CuDef*%
G36*
G01*
X138917500Y-92045750D02*
X138917500Y-92958250D01*
G75*
G02*
X138673750Y-93202000I-243750J0D01*
G01*
X138186250Y-93202000D01*
G75*
G02*
X137942500Y-92958250I0J243750D01*
G01*
X137942500Y-92045750D01*
G75*
G02*
X138186250Y-91802000I243750J0D01*
G01*
X138673750Y-91802000D01*
G75*
G02*
X138917500Y-92045750I0J-243750D01*
G01*
G37*
%TD.AperFunction*%
%TO.P,R6,1*%
%TO.N,VR2+*%
%TA.AperFunction,SMDPad,CuDef*%
G36*
G01*
X140792500Y-92045750D02*
X140792500Y-92958250D01*
G75*
G02*
X140548750Y-93202000I-243750J0D01*
G01*
X140061250Y-93202000D01*
G75*
G02*
X139817500Y-92958250I0J243750D01*
G01*
X139817500Y-92045750D01*
G75*
G02*
X140061250Y-91802000I243750J0D01*
G01*
X140548750Y-91802000D01*
G75*
G02*
X140792500Y-92045750I0J-243750D01*
G01*
G37*
%TD.AperFunction*%
%TD*%
%TO.P,R2,2*%
%TO.N,5V*%
%TA.AperFunction,SMDPad,CuDef*%
G36*
G01*
X155722500Y-80466250D02*
X155722500Y-79553750D01*
G75*
G02*
X155966250Y-79310000I243750J0D01*
G01*
X156453750Y-79310000D01*
G75*
G02*
X156697500Y-79553750I0J-243750D01*
G01*
X156697500Y-80466250D01*
G75*
G02*
X156453750Y-80710000I-243750J0D01*
G01*
X155966250Y-80710000D01*
G75*
G02*
X155722500Y-80466250I0J243750D01*
G01*
G37*
%TD.AperFunction*%
%TO.P,R2,1*%
%TO.N,Output2*%
%TA.AperFunction,SMDPad,CuDef*%
G36*
G01*
X153847500Y-80466250D02*
X153847500Y-79553750D01*
G75*
G02*
X154091250Y-79310000I243750J0D01*
G01*
X154578750Y-79310000D01*
G75*
G02*
X154822500Y-79553750I0J-243750D01*
G01*
X154822500Y-80466250D01*
G75*
G02*
X154578750Y-80710000I-243750J0D01*
G01*
X154091250Y-80710000D01*
G75*
G02*
X153847500Y-80466250I0J243750D01*
G01*
G37*
%TD.AperFunction*%
%TD*%
%TO.P,C5,2*%
%TO.N,Ground*%
%TA.AperFunction,SMDPad,CuDef*%
G36*
G01*
X138917500Y-83363750D02*
X138917500Y-84276250D01*
G75*
G02*
X138673750Y-84520000I-243750J0D01*
G01*
X138186250Y-84520000D01*
G75*
G02*
X137942500Y-84276250I0J243750D01*
G01*
X137942500Y-83363750D01*
G75*
G02*
X138186250Y-83120000I243750J0D01*
G01*
X138673750Y-83120000D01*
G75*
G02*
X138917500Y-83363750I0J-243750D01*
G01*
G37*
%TD.AperFunction*%
%TO.P,C5,1*%
%TO.N,5V*%
%TA.AperFunction,SMDPad,CuDef*%
G36*
G01*
X140792500Y-83363750D02*
X140792500Y-84276250D01*
G75*
G02*
X140548750Y-84520000I-243750J0D01*
G01*
X140061250Y-84520000D01*
G75*
G02*
X139817500Y-84276250I0J243750D01*
G01*
X139817500Y-83363750D01*
G75*
G02*
X140061250Y-83120000I243750J0D01*
G01*
X140548750Y-83120000D01*
G75*
G02*
X140792500Y-83363750I0J-243750D01*
G01*
G37*
%TD.AperFunction*%
%TD*%
%TO.P,C2,2*%
%TO.N,Net-(C2-Pad2)*%
%TA.AperFunction,SMDPad,CuDef*%
G36*
G01*
X142696250Y-79892500D02*
X141783750Y-79892500D01*
G75*
G02*
X141540000Y-79648750I0J243750D01*
G01*
X141540000Y-79161250D01*
G75*
G02*
X141783750Y-78917500I243750J0D01*
G01*
X142696250Y-78917500D01*
G75*
G02*
X142940000Y-79161250I0J-243750D01*
G01*
X142940000Y-79648750D01*
G75*
G02*
X142696250Y-79892500I-243750J0D01*
G01*
G37*
%TD.AperFunction*%
%TO.P,C2,1*%
%TO.N,Net-(C2-Pad1)*%
%TA.AperFunction,SMDPad,CuDef*%
G36*
G01*
X142696250Y-81767500D02*
X141783750Y-81767500D01*
G75*
G02*
X141540000Y-81523750I0J243750D01*
G01*
X141540000Y-81036250D01*
G75*
G02*
X141783750Y-80792500I243750J0D01*
G01*
X142696250Y-80792500D01*
G75*
G02*
X142940000Y-81036250I0J-243750D01*
G01*
X142940000Y-81523750D01*
G75*
G02*
X142696250Y-81767500I-243750J0D01*
G01*
G37*
%TD.AperFunction*%
%TD*%
%TO.P,R5,2*%
%TO.N,Net-(C2-Pad1)*%
%TA.AperFunction,SMDPad,CuDef*%
G36*
G01*
X138917500Y-86257750D02*
X138917500Y-87170250D01*
G75*
G02*
X138673750Y-87414000I-243750J0D01*
G01*
X138186250Y-87414000D01*
G75*
G02*
X137942500Y-87170250I0J243750D01*
G01*
X137942500Y-86257750D01*
G75*
G02*
X138186250Y-86014000I243750J0D01*
G01*
X138673750Y-86014000D01*
G75*
G02*
X138917500Y-86257750I0J-243750D01*
G01*
G37*
%TD.AperFunction*%
%TO.P,R5,1*%
%TO.N,VR2-*%
%TA.AperFunction,SMDPad,CuDef*%
G36*
G01*
X140792500Y-86257750D02*
X140792500Y-87170250D01*
G75*
G02*
X140548750Y-87414000I-243750J0D01*
G01*
X140061250Y-87414000D01*
G75*
G02*
X139817500Y-87170250I0J243750D01*
G01*
X139817500Y-86257750D01*
G75*
G02*
X140061250Y-86014000I243750J0D01*
G01*
X140548750Y-86014000D01*
G75*
G02*
X140792500Y-86257750I0J-243750D01*
G01*
G37*
%TD.AperFunction*%
%TD*%
%TO.P,R4,1*%
%TO.N,VR1-*%
%TA.AperFunction,SMDPad,CuDef*%
G36*
G01*
X137942500Y-98746250D02*
X137942500Y-97833750D01*
G75*
G02*
X138186250Y-97590000I243750J0D01*
G01*
X138673750Y-97590000D01*
G75*
G02*
X138917500Y-97833750I0J-243750D01*
G01*
X138917500Y-98746250D01*
G75*
G02*
X138673750Y-98990000I-243750J0D01*
G01*
X138186250Y-98990000D01*
G75*
G02*
X137942500Y-98746250I0J243750D01*
G01*
G37*
%TD.AperFunction*%
%TO.P,R4,2*%
%TO.N,Net-(C1-Pad2)*%
%TA.AperFunction,SMDPad,CuDef*%
G36*
G01*
X139817500Y-98746250D02*
X139817500Y-97833750D01*
G75*
G02*
X140061250Y-97590000I243750J0D01*
G01*
X140548750Y-97590000D01*
G75*
G02*
X140792500Y-97833750I0J-243750D01*
G01*
X140792500Y-98746250D01*
G75*
G02*
X140548750Y-98990000I-243750J0D01*
G01*
X140061250Y-98990000D01*
G75*
G02*
X139817500Y-98746250I0J243750D01*
G01*
G37*
%TD.AperFunction*%
%TD*%
%TO.P,R3,2*%
%TO.N,Net-(C1-Pad1)*%
%TA.AperFunction,SMDPad,CuDef*%
G36*
G01*
X138917500Y-94939750D02*
X138917500Y-95852250D01*
G75*
G02*
X138673750Y-96096000I-243750J0D01*
G01*
X138186250Y-96096000D01*
G75*
G02*
X137942500Y-95852250I0J243750D01*
G01*
X137942500Y-94939750D01*
G75*
G02*
X138186250Y-94696000I243750J0D01*
G01*
X138673750Y-94696000D01*
G75*
G02*
X138917500Y-94939750I0J-243750D01*
G01*
G37*
%TD.AperFunction*%
%TO.P,R3,1*%
%TO.N,VR1+*%
%TA.AperFunction,SMDPad,CuDef*%
G36*
G01*
X140792500Y-94939750D02*
X140792500Y-95852250D01*
G75*
G02*
X140548750Y-96096000I-243750J0D01*
G01*
X140061250Y-96096000D01*
G75*
G02*
X139817500Y-95852250I0J243750D01*
G01*
X139817500Y-94939750D01*
G75*
G02*
X140061250Y-94696000I243750J0D01*
G01*
X140548750Y-94696000D01*
G75*
G02*
X140792500Y-94939750I0J-243750D01*
G01*
G37*
%TD.AperFunction*%
%TD*%
%TO.P,R1,2*%
%TO.N,5V*%
%TA.AperFunction,SMDPad,CuDef*%
G36*
G01*
X155760000Y-82756250D02*
X155760000Y-81843750D01*
G75*
G02*
X156003750Y-81600000I243750J0D01*
G01*
X156491250Y-81600000D01*
G75*
G02*
X156735000Y-81843750I0J-243750D01*
G01*
X156735000Y-82756250D01*
G75*
G02*
X156491250Y-83000000I-243750J0D01*
G01*
X156003750Y-83000000D01*
G75*
G02*
X155760000Y-82756250I0J243750D01*
G01*
G37*
%TD.AperFunction*%
%TO.P,R1,1*%
%TO.N,Output1*%
%TA.AperFunction,SMDPad,CuDef*%
G36*
G01*
X153885000Y-82756250D02*
X153885000Y-81843750D01*
G75*
G02*
X154128750Y-81600000I243750J0D01*
G01*
X154616250Y-81600000D01*
G75*
G02*
X154860000Y-81843750I0J-243750D01*
G01*
X154860000Y-82756250D01*
G75*
G02*
X154616250Y-83000000I-243750J0D01*
G01*
X154128750Y-83000000D01*
G75*
G02*
X153885000Y-82756250I0J243750D01*
G01*
G37*
%TD.AperFunction*%
%TD*%
%TO.P,C4,2*%
%TO.N,Ground*%
%TA.AperFunction,SMDPad,CuDef*%
G36*
G01*
X135076250Y-79892500D02*
X134163750Y-79892500D01*
G75*
G02*
X133920000Y-79648750I0J243750D01*
G01*
X133920000Y-79161250D01*
G75*
G02*
X134163750Y-78917500I243750J0D01*
G01*
X135076250Y-78917500D01*
G75*
G02*
X135320000Y-79161250I0J-243750D01*
G01*
X135320000Y-79648750D01*
G75*
G02*
X135076250Y-79892500I-243750J0D01*
G01*
G37*
%TD.AperFunction*%
%TO.P,C4,1*%
%TO.N,5V*%
%TA.AperFunction,SMDPad,CuDef*%
G36*
G01*
X135076250Y-81767500D02*
X134163750Y-81767500D01*
G75*
G02*
X133920000Y-81523750I0J243750D01*
G01*
X133920000Y-81036250D01*
G75*
G02*
X134163750Y-80792500I243750J0D01*
G01*
X135076250Y-80792500D01*
G75*
G02*
X135320000Y-81036250I0J-243750D01*
G01*
X135320000Y-81523750D01*
G75*
G02*
X135076250Y-81767500I-243750J0D01*
G01*
G37*
%TD.AperFunction*%
%TD*%
%TO.P,C3,2*%
%TO.N,Ground*%
%TA.AperFunction,SMDPad,CuDef*%
G36*
G01*
X138917500Y-89151750D02*
X138917500Y-90064250D01*
G75*
G02*
X138673750Y-90308000I-243750J0D01*
G01*
X138186250Y-90308000D01*
G75*
G02*
X137942500Y-90064250I0J243750D01*
G01*
X137942500Y-89151750D01*
G75*
G02*
X138186250Y-88908000I243750J0D01*
G01*
X138673750Y-88908000D01*
G75*
G02*
X138917500Y-89151750I0J-243750D01*
G01*
G37*
%TD.AperFunction*%
%TO.P,C3,1*%
%TO.N,5V*%
%TA.AperFunction,SMDPad,CuDef*%
G36*
G01*
X140792500Y-89151750D02*
X140792500Y-90064250D01*
G75*
G02*
X140548750Y-90308000I-243750J0D01*
G01*
X140061250Y-90308000D01*
G75*
G02*
X139817500Y-90064250I0J243750D01*
G01*
X139817500Y-89151750D01*
G75*
G02*
X140061250Y-88908000I243750J0D01*
G01*
X140548750Y-88908000D01*
G75*
G02*
X140792500Y-89151750I0J-243750D01*
G01*
G37*
%TD.AperFunction*%
%TD*%
D15*
%TO.N,Net-(C1-Pad2)*%
X139700000Y-80010000D03*
X141771433Y-97551446D03*
%TO.N,Net-(C1-Pad1)*%
X139700000Y-81280000D03*
X139700000Y-93980000D03*
D16*
%TO.N,Ground*%
X138430000Y-85090000D03*
X148590000Y-82550000D03*
%TD*%
D17*
%TO.N,Net-(C1-Pad2)*%
X143827500Y-84137500D02*
X145594700Y-84137500D01*
X141339990Y-81649990D02*
X141339990Y-81707562D01*
X141657510Y-81967510D02*
X143827500Y-84137500D01*
X139700000Y-80010000D02*
X141339990Y-81649990D01*
X141339990Y-81707562D02*
X141599938Y-81967510D01*
X141599938Y-81967510D02*
X141657510Y-81967510D01*
X139035000Y-80010000D02*
X138430000Y-79405000D01*
X139700000Y-80010000D02*
X139035000Y-80010000D01*
X140305000Y-98290000D02*
X141032879Y-98290000D01*
X141032879Y-98290000D02*
X141771433Y-97551446D01*
%TO.N,Net-(C1-Pad1)*%
X143192500Y-84772500D02*
X145594700Y-84772500D01*
X139700000Y-81280000D02*
X143192500Y-84772500D01*
X139700000Y-81280000D02*
X138430000Y-81280000D01*
X139700000Y-94126000D02*
X138430000Y-95396000D01*
X139700000Y-93980000D02*
X139700000Y-94126000D01*
%TO.N,Net-(C2-Pad2)*%
X144672200Y-79405000D02*
X145594700Y-80327500D01*
X142240000Y-79405000D02*
X144672200Y-79405000D01*
X142240000Y-79405000D02*
X140365000Y-79405000D01*
X133219999Y-87291999D02*
X138430000Y-92502000D01*
X133219999Y-79336007D02*
X133219999Y-87291999D01*
X134138527Y-78417479D02*
X133219999Y-79336007D01*
X139377480Y-78417479D02*
X134138527Y-78417479D01*
X140365000Y-79405000D02*
X139377480Y-78417479D01*
%TO.N,Net-(C2-Pad1)*%
X142557500Y-80962500D02*
X145594700Y-80962500D01*
X142240000Y-81280000D02*
X142557500Y-80962500D01*
X137789938Y-78717490D02*
X137529990Y-78977438D01*
X137529990Y-78977438D02*
X137529990Y-85813990D01*
X141815722Y-81280000D02*
X139253212Y-78717490D01*
X137529990Y-85813990D02*
X138430000Y-86714000D01*
X139253212Y-78717490D02*
X137789938Y-78717490D01*
X142240000Y-81280000D02*
X141815722Y-81280000D01*
D18*
%TO.N,Ground*%
X149542500Y-81597500D02*
X148590000Y-82550000D01*
X150903300Y-81597500D02*
X149542500Y-81597500D01*
X147597200Y-82550000D02*
X148590000Y-82550000D01*
X146644700Y-81597500D02*
X147597200Y-82550000D01*
X145594700Y-81597500D02*
X146644700Y-81597500D01*
X149542500Y-83502500D02*
X148590000Y-82550000D01*
X150903300Y-83502500D02*
X149542500Y-83502500D01*
X148590000Y-81590800D02*
X148590000Y-82550000D01*
X149853300Y-80327500D02*
X148590000Y-81590800D01*
X150903300Y-80327500D02*
X149853300Y-80327500D01*
X148590000Y-83509200D02*
X148590000Y-82550000D01*
X149853300Y-84772500D02*
X148590000Y-83509200D01*
X150903300Y-84772500D02*
X149853300Y-84772500D01*
X148272500Y-82867500D02*
X148590000Y-82550000D01*
X145594700Y-82867500D02*
X148272500Y-82867500D01*
X139242510Y-84632510D02*
X138430000Y-83820000D01*
X139242510Y-88795490D02*
X139242510Y-84632510D01*
X138430000Y-89608000D02*
X139242510Y-88795490D01*
X138430000Y-85090000D02*
X138430000Y-83820000D01*
X137104978Y-88282978D02*
X138430000Y-89608000D01*
X137104978Y-81889978D02*
X137104978Y-88282978D01*
X134620000Y-79405000D02*
X137104978Y-81889978D01*
D17*
%TO.N,Output2*%
X154125800Y-80010000D02*
X154335000Y-80010000D01*
X151903300Y-82232500D02*
X154125800Y-80010000D01*
X150903300Y-82232500D02*
X151903300Y-82232500D01*
X154335000Y-80493526D02*
X154335000Y-80010000D01*
X150649999Y-96250001D02*
X151610001Y-96250001D01*
X156210000Y-86316280D02*
X156640012Y-85886269D01*
X150129999Y-95730001D02*
X150649999Y-96250001D01*
X151130000Y-92710000D02*
X150129999Y-93710001D01*
X156640012Y-85886269D02*
X156640012Y-84293731D01*
X156210000Y-91650002D02*
X156210000Y-86316280D01*
X155459990Y-81618516D02*
X154335000Y-80493526D01*
X150129999Y-93710001D02*
X150129999Y-95730001D01*
X156640012Y-84293731D02*
X155459990Y-83113709D01*
X151610001Y-96250001D02*
X156210000Y-91650002D01*
X155459990Y-83113709D02*
X155459990Y-81618516D01*
%TO.N,Output1*%
X153805000Y-82867500D02*
X150903300Y-82867500D01*
X154372500Y-82300000D02*
X153805000Y-82867500D01*
X151130000Y-95250000D02*
X155909989Y-90470011D01*
X156340001Y-84417999D02*
X154372500Y-82450498D01*
X155909989Y-90470011D02*
X155909989Y-86192013D01*
X156340001Y-85762001D02*
X156340001Y-84417999D01*
X155909989Y-86192013D02*
X156340001Y-85762001D01*
X154372500Y-82450498D02*
X154372500Y-82300000D01*
%TO.N,VR2-*%
X142594000Y-86714000D02*
X143510000Y-87630000D01*
X140305000Y-86714000D02*
X142594000Y-86714000D01*
%TO.N,VR2+*%
X141178000Y-92502000D02*
X143510000Y-90170000D01*
X140305000Y-92502000D02*
X141178000Y-92502000D01*
X134620000Y-88102250D02*
X134620000Y-85090000D01*
X139117510Y-92502000D02*
X139117510Y-91861938D01*
X138857562Y-91601990D02*
X138119740Y-91601990D01*
X140305000Y-92502000D02*
X139117510Y-92502000D01*
X138119740Y-91601990D02*
X134620000Y-88102250D01*
X139117510Y-91861938D02*
X138857562Y-91601990D01*
%TO.N,VR1+*%
X140824000Y-95396000D02*
X140305000Y-95396000D01*
X143510000Y-92710000D02*
X140824000Y-95396000D01*
%TO.N,VR1-*%
X140423990Y-96296010D02*
X138430000Y-98290000D01*
X142463990Y-96296010D02*
X140423990Y-96296010D01*
X143510000Y-95250000D02*
X142463990Y-96296010D01*
X146050000Y-97790000D02*
X154940000Y-97790000D01*
X143510000Y-95250000D02*
X146050000Y-97790000D01*
%TD*%
D19*
%TO.N,5V*%
G36*
X158448001Y-97663000D02*
G01*
X156467000Y-97663000D01*
X156467000Y-97639604D01*
X156408319Y-97344590D01*
X156293210Y-97066694D01*
X156126099Y-96816594D01*
X155913406Y-96603901D01*
X155663306Y-96436790D01*
X155385410Y-96321681D01*
X155090396Y-96263000D01*
X154789604Y-96263000D01*
X154494590Y-96321681D01*
X154216694Y-96436790D01*
X153966594Y-96603901D01*
X153753901Y-96816594D01*
X153586790Y-97066694D01*
X153471681Y-97344590D01*
X153468019Y-97363000D01*
X146226869Y-97363000D01*
X144638582Y-95774714D01*
X144638582Y-94450000D01*
X144632268Y-94385897D01*
X144613570Y-94324257D01*
X144583206Y-94267450D01*
X144542343Y-94217657D01*
X144492550Y-94176794D01*
X144435743Y-94146430D01*
X144374103Y-94127732D01*
X144310000Y-94121418D01*
X142710000Y-94121418D01*
X142701626Y-94122243D01*
X143074431Y-93749437D01*
X143181266Y-93793690D01*
X143399000Y-93837000D01*
X143621000Y-93837000D01*
X143838734Y-93793690D01*
X144043835Y-93708734D01*
X144228421Y-93585398D01*
X144385398Y-93428421D01*
X144508734Y-93243835D01*
X144593690Y-93038734D01*
X144637000Y-92821000D01*
X144637000Y-92599000D01*
X144593690Y-92381266D01*
X144508734Y-92176165D01*
X144385398Y-91991579D01*
X144228421Y-91834602D01*
X144043835Y-91711266D01*
X143838734Y-91626310D01*
X143621000Y-91583000D01*
X143399000Y-91583000D01*
X143181266Y-91626310D01*
X142976165Y-91711266D01*
X142791579Y-91834602D01*
X142634602Y-91991579D01*
X142511266Y-92176165D01*
X142426310Y-92381266D01*
X142383000Y-92599000D01*
X142383000Y-92821000D01*
X142426310Y-93038734D01*
X142470563Y-93145569D01*
X141010981Y-94605151D01*
X140953450Y-94535050D01*
X140866721Y-94463873D01*
X140767772Y-94410984D01*
X140660406Y-94378415D01*
X140548750Y-94367418D01*
X140195222Y-94367418D01*
X140255640Y-94276996D01*
X140302905Y-94162889D01*
X140327000Y-94041754D01*
X140327000Y-93918246D01*
X140302905Y-93797111D01*
X140255640Y-93683004D01*
X140187023Y-93580311D01*
X140137294Y-93530582D01*
X140548750Y-93530582D01*
X140660406Y-93519585D01*
X140767772Y-93487016D01*
X140866721Y-93434127D01*
X140953450Y-93362950D01*
X141024627Y-93276221D01*
X141077516Y-93177272D01*
X141110085Y-93069906D01*
X141121082Y-92958250D01*
X141121082Y-92929000D01*
X141157033Y-92929000D01*
X141178000Y-92931065D01*
X141198967Y-92929000D01*
X141198978Y-92929000D01*
X141261707Y-92922822D01*
X141342196Y-92898405D01*
X141416376Y-92858755D01*
X141481395Y-92805395D01*
X141494768Y-92789100D01*
X143074431Y-91209437D01*
X143181266Y-91253690D01*
X143399000Y-91297000D01*
X143621000Y-91297000D01*
X143838734Y-91253690D01*
X144043835Y-91168734D01*
X144228421Y-91045398D01*
X144385398Y-90888421D01*
X144508734Y-90703835D01*
X144593690Y-90498734D01*
X144637000Y-90281000D01*
X144637000Y-90059000D01*
X144593690Y-89841266D01*
X144508734Y-89636165D01*
X144385398Y-89451579D01*
X144228421Y-89294602D01*
X144043835Y-89171266D01*
X143838734Y-89086310D01*
X143621000Y-89043000D01*
X143399000Y-89043000D01*
X143181266Y-89086310D01*
X142976165Y-89171266D01*
X142791579Y-89294602D01*
X142634602Y-89451579D01*
X142511266Y-89636165D01*
X142426310Y-89841266D01*
X142383000Y-90059000D01*
X142383000Y-90281000D01*
X142426310Y-90498734D01*
X142470563Y-90605569D01*
X141112950Y-91963182D01*
X141110085Y-91934094D01*
X141077516Y-91826728D01*
X141024627Y-91727779D01*
X140953450Y-91641050D01*
X140866721Y-91569873D01*
X140767772Y-91516984D01*
X140660406Y-91484415D01*
X140548750Y-91473418D01*
X140061250Y-91473418D01*
X139949594Y-91484415D01*
X139842228Y-91516984D01*
X139743279Y-91569873D01*
X139656550Y-91641050D01*
X139585373Y-91727779D01*
X139541455Y-91809944D01*
X139538332Y-91778231D01*
X139513915Y-91697742D01*
X139495458Y-91663211D01*
X139474265Y-91623561D01*
X139434278Y-91574838D01*
X139420905Y-91558543D01*
X139404610Y-91545170D01*
X139174329Y-91314889D01*
X139160957Y-91298595D01*
X139095938Y-91245235D01*
X139021758Y-91205585D01*
X138941269Y-91181168D01*
X138878540Y-91174990D01*
X138878529Y-91174990D01*
X138857562Y-91172925D01*
X138836595Y-91174990D01*
X138296609Y-91174990D01*
X135047000Y-87925382D01*
X135047000Y-86561981D01*
X135065410Y-86558319D01*
X135343306Y-86443210D01*
X135593406Y-86276099D01*
X135806099Y-86063406D01*
X135973210Y-85813306D01*
X136088319Y-85535410D01*
X136147000Y-85240396D01*
X136147000Y-84939604D01*
X136088319Y-84644590D01*
X135973210Y-84366694D01*
X135806099Y-84116594D01*
X135593406Y-83903901D01*
X135343306Y-83736790D01*
X135065410Y-83621681D01*
X134770396Y-83563000D01*
X134469604Y-83563000D01*
X134174590Y-83621681D01*
X133896694Y-83736790D01*
X133646999Y-83903630D01*
X133646999Y-82341597D01*
X133675820Y-82357002D01*
X133795518Y-82393312D01*
X133920000Y-82405572D01*
X134334250Y-82402500D01*
X134493000Y-82243750D01*
X134493000Y-81407000D01*
X134473000Y-81407000D01*
X134473000Y-81153000D01*
X134493000Y-81153000D01*
X134493000Y-81133000D01*
X134747000Y-81133000D01*
X134747000Y-81153000D01*
X134767000Y-81153000D01*
X134767000Y-81407000D01*
X134747000Y-81407000D01*
X134747000Y-82243750D01*
X134905750Y-82402500D01*
X135320000Y-82405572D01*
X135444482Y-82393312D01*
X135564180Y-82357002D01*
X135674494Y-82298037D01*
X135771185Y-82218685D01*
X135850537Y-82121994D01*
X135909502Y-82011680D01*
X135945812Y-81891982D01*
X135958072Y-81767500D01*
X135955000Y-81565750D01*
X135796252Y-81407002D01*
X135955000Y-81407002D01*
X135955000Y-81379224D01*
X136652978Y-82077202D01*
X136652979Y-88260763D01*
X136650791Y-88282978D01*
X136659518Y-88371585D01*
X136685364Y-88456787D01*
X136685365Y-88456788D01*
X136727336Y-88535311D01*
X136783820Y-88604137D01*
X136801074Y-88618297D01*
X137613918Y-89431142D01*
X137613918Y-90064250D01*
X137624915Y-90175906D01*
X137657484Y-90283272D01*
X137710373Y-90382221D01*
X137781550Y-90468950D01*
X137868279Y-90540127D01*
X137967228Y-90593016D01*
X138074594Y-90625585D01*
X138186250Y-90636582D01*
X138673750Y-90636582D01*
X138785406Y-90625585D01*
X138892772Y-90593016D01*
X138991721Y-90540127D01*
X139078450Y-90468950D01*
X139149627Y-90382221D01*
X139180964Y-90323594D01*
X139191688Y-90432482D01*
X139227998Y-90552180D01*
X139286963Y-90662494D01*
X139366315Y-90759185D01*
X139463006Y-90838537D01*
X139573320Y-90897502D01*
X139693018Y-90933812D01*
X139817500Y-90946072D01*
X140019250Y-90943000D01*
X140178000Y-90784250D01*
X140178000Y-89735000D01*
X140432000Y-89735000D01*
X140432000Y-90784250D01*
X140590750Y-90943000D01*
X140792500Y-90946072D01*
X140916982Y-90933812D01*
X141036680Y-90897502D01*
X141146994Y-90838537D01*
X141243685Y-90759185D01*
X141323037Y-90662494D01*
X141382002Y-90552180D01*
X141418312Y-90432482D01*
X141430572Y-90308000D01*
X141427500Y-89893750D01*
X141268750Y-89735000D01*
X140432000Y-89735000D01*
X140178000Y-89735000D01*
X140158000Y-89735000D01*
X140158000Y-89481000D01*
X140178000Y-89481000D01*
X140178000Y-88431750D01*
X140432000Y-88431750D01*
X140432000Y-89481000D01*
X141268750Y-89481000D01*
X141427500Y-89322250D01*
X141430572Y-88908000D01*
X141418312Y-88783518D01*
X141382002Y-88663820D01*
X141323037Y-88553506D01*
X141243685Y-88456815D01*
X141146994Y-88377463D01*
X141036680Y-88318498D01*
X140916982Y-88282188D01*
X140792500Y-88269928D01*
X140590750Y-88273000D01*
X140432000Y-88431750D01*
X140178000Y-88431750D01*
X140019250Y-88273000D01*
X139817500Y-88269928D01*
X139694510Y-88282041D01*
X139694510Y-87606103D01*
X139743279Y-87646127D01*
X139842228Y-87699016D01*
X139949594Y-87731585D01*
X140061250Y-87742582D01*
X140548750Y-87742582D01*
X140660406Y-87731585D01*
X140767772Y-87699016D01*
X140866721Y-87646127D01*
X140953450Y-87574950D01*
X141024627Y-87488221D01*
X141077516Y-87389272D01*
X141110085Y-87281906D01*
X141121082Y-87170250D01*
X141121082Y-87141000D01*
X142417132Y-87141000D01*
X142470563Y-87194431D01*
X142426310Y-87301266D01*
X142383000Y-87519000D01*
X142383000Y-87741000D01*
X142426310Y-87958734D01*
X142511266Y-88163835D01*
X142634602Y-88348421D01*
X142791579Y-88505398D01*
X142976165Y-88628734D01*
X143181266Y-88713690D01*
X143399000Y-88757000D01*
X143621000Y-88757000D01*
X143838734Y-88713690D01*
X144043835Y-88628734D01*
X144228421Y-88505398D01*
X144385398Y-88348421D01*
X144508734Y-88163835D01*
X144585279Y-87979039D01*
X149738096Y-87979039D01*
X149778754Y-88113087D01*
X149898963Y-88367420D01*
X150066481Y-88593414D01*
X150274869Y-88782385D01*
X150516119Y-88927070D01*
X150780960Y-89021909D01*
X151002998Y-88900625D01*
X151002998Y-89046183D01*
X150801266Y-89086310D01*
X150596165Y-89171266D01*
X150411579Y-89294602D01*
X150254602Y-89451579D01*
X150131266Y-89636165D01*
X150046310Y-89841266D01*
X150003000Y-90059000D01*
X150003000Y-90281000D01*
X150046310Y-90498734D01*
X150131266Y-90703835D01*
X150254602Y-90888421D01*
X150411579Y-91045398D01*
X150596165Y-91168734D01*
X150801266Y-91253690D01*
X151019000Y-91297000D01*
X151241000Y-91297000D01*
X151458734Y-91253690D01*
X151663835Y-91168734D01*
X151848421Y-91045398D01*
X152005398Y-90888421D01*
X152128734Y-90703835D01*
X152213690Y-90498734D01*
X152257000Y-90281000D01*
X152257000Y-90059000D01*
X152213690Y-89841266D01*
X152128734Y-89636165D01*
X152005398Y-89451579D01*
X151848421Y-89294602D01*
X151663835Y-89171266D01*
X151458734Y-89086310D01*
X151257002Y-89046183D01*
X151257002Y-88900625D01*
X151479040Y-89021909D01*
X151743881Y-88927070D01*
X151985131Y-88782385D01*
X152193519Y-88593414D01*
X152361037Y-88367420D01*
X152481246Y-88113087D01*
X152521904Y-87979039D01*
X152399915Y-87757000D01*
X151257000Y-87757000D01*
X151257000Y-87777000D01*
X151003000Y-87777000D01*
X151003000Y-87757000D01*
X149860085Y-87757000D01*
X149738096Y-87979039D01*
X144585279Y-87979039D01*
X144593690Y-87958734D01*
X144637000Y-87741000D01*
X144637000Y-87519000D01*
X144593690Y-87301266D01*
X144585280Y-87280961D01*
X149738096Y-87280961D01*
X149860085Y-87503000D01*
X151003000Y-87503000D01*
X151003000Y-86359376D01*
X151257000Y-86359376D01*
X151257000Y-87503000D01*
X152399915Y-87503000D01*
X152521904Y-87280961D01*
X152481246Y-87146913D01*
X152361037Y-86892580D01*
X152193519Y-86666586D01*
X151985131Y-86477615D01*
X151743881Y-86332930D01*
X151479040Y-86238091D01*
X151257000Y-86359376D01*
X151003000Y-86359376D01*
X150780960Y-86238091D01*
X150516119Y-86332930D01*
X150274869Y-86477615D01*
X150066481Y-86666586D01*
X149898963Y-86892580D01*
X149778754Y-87146913D01*
X149738096Y-87280961D01*
X144585280Y-87280961D01*
X144508734Y-87096165D01*
X144385398Y-86911579D01*
X144228421Y-86754602D01*
X144043835Y-86631266D01*
X143838734Y-86546310D01*
X143621000Y-86503000D01*
X143399000Y-86503000D01*
X143181266Y-86546310D01*
X143074431Y-86590563D01*
X142910766Y-86426898D01*
X142897395Y-86410605D01*
X142832376Y-86357245D01*
X142758196Y-86317595D01*
X142677707Y-86293178D01*
X142614978Y-86287000D01*
X142614967Y-86287000D01*
X142594000Y-86284935D01*
X142573033Y-86287000D01*
X141121082Y-86287000D01*
X141121082Y-86257750D01*
X141110085Y-86146094D01*
X141077516Y-86038728D01*
X141024627Y-85939779D01*
X140953450Y-85853050D01*
X140866721Y-85781873D01*
X140767772Y-85728984D01*
X140660406Y-85696415D01*
X140548750Y-85685418D01*
X140061250Y-85685418D01*
X139949594Y-85696415D01*
X139842228Y-85728984D01*
X139743279Y-85781873D01*
X139694510Y-85821897D01*
X139694510Y-85145959D01*
X139817500Y-85158072D01*
X140019250Y-85155000D01*
X140178000Y-84996250D01*
X140178000Y-83947000D01*
X140432000Y-83947000D01*
X140432000Y-84996250D01*
X140590750Y-85155000D01*
X140792500Y-85158072D01*
X140916982Y-85145812D01*
X141036680Y-85109502D01*
X141146994Y-85050537D01*
X141243685Y-84971185D01*
X141323037Y-84874494D01*
X141382002Y-84764180D01*
X141418312Y-84644482D01*
X141430572Y-84520000D01*
X141427500Y-84105750D01*
X141268750Y-83947000D01*
X140432000Y-83947000D01*
X140178000Y-83947000D01*
X140158000Y-83947000D01*
X140158000Y-83693000D01*
X140178000Y-83693000D01*
X140178000Y-83673000D01*
X140432000Y-83673000D01*
X140432000Y-83693000D01*
X141268750Y-83693000D01*
X141388941Y-83572809D01*
X142875736Y-85059605D01*
X142889105Y-85075895D01*
X142905395Y-85089264D01*
X142905399Y-85089268D01*
X142954123Y-85129255D01*
X142985100Y-85145812D01*
X143028304Y-85168905D01*
X143108793Y-85193322D01*
X143171522Y-85199500D01*
X143171533Y-85199500D01*
X143192500Y-85201565D01*
X143213467Y-85199500D01*
X144553869Y-85199500D01*
X144562357Y-85209843D01*
X144612150Y-85250706D01*
X144668957Y-85281070D01*
X144730597Y-85299768D01*
X144794700Y-85306082D01*
X146394700Y-85306082D01*
X146458803Y-85299768D01*
X146520443Y-85281070D01*
X146577250Y-85250706D01*
X146627043Y-85209843D01*
X146667906Y-85160050D01*
X146698270Y-85103243D01*
X146716968Y-85041603D01*
X146723282Y-84977500D01*
X146723282Y-84567500D01*
X146716968Y-84503397D01*
X146702287Y-84455000D01*
X146716968Y-84406603D01*
X146723282Y-84342500D01*
X146723282Y-84252490D01*
X146741622Y-84243019D01*
X146839431Y-84165048D01*
X146920149Y-84069494D01*
X146980674Y-83960028D01*
X147018680Y-83840858D01*
X147029700Y-83739250D01*
X146870950Y-83580500D01*
X145721700Y-83580500D01*
X145721700Y-83603918D01*
X145467700Y-83603918D01*
X145467700Y-83580500D01*
X144318450Y-83580500D01*
X144188450Y-83710500D01*
X144004370Y-83710500D01*
X142389950Y-82096082D01*
X142696250Y-82096082D01*
X142807906Y-82085085D01*
X142915272Y-82052516D01*
X143014221Y-81999627D01*
X143100950Y-81928450D01*
X143172127Y-81841721D01*
X143225016Y-81742772D01*
X143257585Y-81635406D01*
X143268582Y-81523750D01*
X143268582Y-81389500D01*
X144466413Y-81389500D01*
X144466118Y-81392500D01*
X144466118Y-81802500D01*
X144472432Y-81866603D01*
X144487113Y-81915000D01*
X144472432Y-81963397D01*
X144466118Y-82027500D01*
X144466118Y-82437500D01*
X144472432Y-82501603D01*
X144487113Y-82549999D01*
X144472432Y-82598397D01*
X144466118Y-82662500D01*
X144466118Y-82752510D01*
X144447778Y-82761981D01*
X144349969Y-82839952D01*
X144269251Y-82935506D01*
X144208726Y-83044972D01*
X144170720Y-83164142D01*
X144159700Y-83265750D01*
X144318450Y-83424500D01*
X145467700Y-83424500D01*
X145467700Y-83401082D01*
X145721700Y-83401082D01*
X145721700Y-83424500D01*
X146870950Y-83424500D01*
X146975950Y-83319500D01*
X148138000Y-83319500D01*
X148138000Y-83486994D01*
X148135813Y-83509200D01*
X148144540Y-83597807D01*
X148159217Y-83646190D01*
X148170386Y-83683009D01*
X148212357Y-83761532D01*
X148268841Y-83830359D01*
X148286100Y-83844523D01*
X149517981Y-85076405D01*
X149532141Y-85093659D01*
X149600967Y-85150143D01*
X149636067Y-85168904D01*
X149679490Y-85192114D01*
X149764692Y-85217960D01*
X149853300Y-85226687D01*
X149875505Y-85224500D01*
X149888817Y-85224500D01*
X149920750Y-85250706D01*
X149977557Y-85281070D01*
X150039197Y-85299768D01*
X150103300Y-85306082D01*
X151703300Y-85306082D01*
X151767403Y-85299768D01*
X151829043Y-85281070D01*
X151885850Y-85250706D01*
X151935643Y-85209843D01*
X151976506Y-85160050D01*
X152006870Y-85103243D01*
X152025568Y-85041603D01*
X152031882Y-84977500D01*
X152031882Y-84567500D01*
X152025568Y-84503397D01*
X152010887Y-84455000D01*
X152025568Y-84406603D01*
X152031882Y-84342500D01*
X152031882Y-83932500D01*
X152025568Y-83868397D01*
X152010887Y-83820000D01*
X152025568Y-83771603D01*
X152031882Y-83707500D01*
X152031882Y-83297500D01*
X152031587Y-83294500D01*
X153784033Y-83294500D01*
X153805000Y-83296565D01*
X153825967Y-83294500D01*
X153825978Y-83294500D01*
X153888707Y-83288322D01*
X153906063Y-83283057D01*
X153909728Y-83285016D01*
X154017094Y-83317585D01*
X154128750Y-83328582D01*
X154616250Y-83328582D01*
X154643984Y-83325850D01*
X154881134Y-83563000D01*
X154789604Y-83563000D01*
X154494590Y-83621681D01*
X154216694Y-83736790D01*
X153966594Y-83903901D01*
X153753901Y-84116594D01*
X153586790Y-84366694D01*
X153471681Y-84644590D01*
X153413000Y-84939604D01*
X153413000Y-85240396D01*
X153471681Y-85535410D01*
X153586790Y-85813306D01*
X153753901Y-86063406D01*
X153966594Y-86276099D01*
X154216694Y-86443210D01*
X154494590Y-86558319D01*
X154789604Y-86617000D01*
X155090396Y-86617000D01*
X155385410Y-86558319D01*
X155482990Y-86517900D01*
X155482989Y-90293141D01*
X151565569Y-94210563D01*
X151458734Y-94166310D01*
X151241000Y-94123000D01*
X151019000Y-94123000D01*
X150801266Y-94166310D01*
X150596165Y-94251266D01*
X150556999Y-94277436D01*
X150556999Y-93886869D01*
X150694431Y-93749437D01*
X150801266Y-93793690D01*
X151019000Y-93837000D01*
X151241000Y-93837000D01*
X151458734Y-93793690D01*
X151663835Y-93708734D01*
X151848421Y-93585398D01*
X152005398Y-93428421D01*
X152128734Y-93243835D01*
X152213690Y-93038734D01*
X152257000Y-92821000D01*
X152257000Y-92599000D01*
X152213690Y-92381266D01*
X152128734Y-92176165D01*
X152005398Y-91991579D01*
X151848421Y-91834602D01*
X151663835Y-91711266D01*
X151458734Y-91626310D01*
X151241000Y-91583000D01*
X151019000Y-91583000D01*
X150801266Y-91626310D01*
X150596165Y-91711266D01*
X150411579Y-91834602D01*
X150254602Y-91991579D01*
X150131266Y-92176165D01*
X150046310Y-92381266D01*
X150003000Y-92599000D01*
X150003000Y-92821000D01*
X150046310Y-93038734D01*
X150090563Y-93145569D01*
X149842899Y-93393233D01*
X149826604Y-93406606D01*
X149813232Y-93422900D01*
X149813231Y-93422901D01*
X149773244Y-93471625D01*
X149752051Y-93511275D01*
X149733594Y-93545806D01*
X149709177Y-93626295D01*
X149702999Y-93689024D01*
X149702999Y-93689034D01*
X149700934Y-93710001D01*
X149702999Y-93730968D01*
X149703000Y-95709024D01*
X149700934Y-95730001D01*
X149703000Y-95750978D01*
X149703000Y-95750979D01*
X149709178Y-95813708D01*
X149727829Y-95875189D01*
X149733595Y-95894197D01*
X149773244Y-95968377D01*
X149813231Y-96017101D01*
X149813236Y-96017106D01*
X149826605Y-96033396D01*
X149842894Y-96046764D01*
X150333235Y-96537106D01*
X150346604Y-96553396D01*
X150362894Y-96566765D01*
X150362898Y-96566769D01*
X150411622Y-96606756D01*
X150422889Y-96612778D01*
X150485803Y-96646406D01*
X150566292Y-96670823D01*
X150629021Y-96677001D01*
X150629031Y-96677001D01*
X150649998Y-96679066D01*
X150670965Y-96677001D01*
X151589034Y-96677001D01*
X151610001Y-96679066D01*
X151630968Y-96677001D01*
X151630979Y-96677001D01*
X151693708Y-96670823D01*
X151774197Y-96646406D01*
X151848377Y-96606756D01*
X151913396Y-96553396D01*
X151926769Y-96537101D01*
X156497107Y-91966764D01*
X156513395Y-91953397D01*
X156526764Y-91937107D01*
X156526768Y-91937103D01*
X156566755Y-91888379D01*
X156595499Y-91834602D01*
X156606405Y-91814198D01*
X156630822Y-91733709D01*
X156637000Y-91670980D01*
X156637000Y-91670969D01*
X156639065Y-91650002D01*
X156637000Y-91629035D01*
X156637000Y-86493149D01*
X156927118Y-86203032D01*
X156943407Y-86189664D01*
X156956776Y-86173374D01*
X156956779Y-86173371D01*
X156996767Y-86124646D01*
X157036416Y-86050467D01*
X157036830Y-86049102D01*
X157060834Y-85969976D01*
X157067012Y-85907247D01*
X157067012Y-85907237D01*
X157069077Y-85886270D01*
X157067012Y-85865303D01*
X157067012Y-84314697D01*
X157069077Y-84293730D01*
X157067012Y-84272763D01*
X157067012Y-84272753D01*
X157060834Y-84210024D01*
X157036417Y-84129535D01*
X157005842Y-84072333D01*
X156996767Y-84055354D01*
X156956780Y-84006630D01*
X156956776Y-84006626D01*
X156943407Y-83990336D01*
X156927117Y-83976967D01*
X156585952Y-83635802D01*
X156735000Y-83638072D01*
X156859482Y-83625812D01*
X156979180Y-83589502D01*
X157089494Y-83530537D01*
X157186185Y-83451185D01*
X157265537Y-83354494D01*
X157324502Y-83244180D01*
X157360812Y-83124482D01*
X157373072Y-83000000D01*
X157370000Y-82585750D01*
X157211250Y-82427000D01*
X156374500Y-82427000D01*
X156374500Y-82447000D01*
X156120500Y-82447000D01*
X156120500Y-82427000D01*
X156100500Y-82427000D01*
X156100500Y-82173000D01*
X156120500Y-82173000D01*
X156120500Y-81123750D01*
X156083000Y-81086250D01*
X156083000Y-80137000D01*
X156337000Y-80137000D01*
X156337000Y-81186250D01*
X156374500Y-81223750D01*
X156374500Y-82173000D01*
X157211250Y-82173000D01*
X157370000Y-82014250D01*
X157373072Y-81600000D01*
X157360812Y-81475518D01*
X157324502Y-81355820D01*
X157265537Y-81245506D01*
X157186185Y-81148815D01*
X157169843Y-81135404D01*
X157228037Y-81064494D01*
X157287002Y-80954180D01*
X157323312Y-80834482D01*
X157335572Y-80710000D01*
X157332500Y-80295750D01*
X157173750Y-80137000D01*
X156337000Y-80137000D01*
X156083000Y-80137000D01*
X156063000Y-80137000D01*
X156063000Y-79883000D01*
X156083000Y-79883000D01*
X156083000Y-79863000D01*
X156337000Y-79863000D01*
X156337000Y-79883000D01*
X157173750Y-79883000D01*
X157332500Y-79724250D01*
X157335572Y-79310000D01*
X157323312Y-79185518D01*
X157287002Y-79065820D01*
X157228037Y-78955506D01*
X157155402Y-78867000D01*
X158448000Y-78867000D01*
X158448001Y-97663000D01*
G37*
X158448001Y-97663000D02*
X156467000Y-97663000D01*
X156467000Y-97639604D01*
X156408319Y-97344590D01*
X156293210Y-97066694D01*
X156126099Y-96816594D01*
X155913406Y-96603901D01*
X155663306Y-96436790D01*
X155385410Y-96321681D01*
X155090396Y-96263000D01*
X154789604Y-96263000D01*
X154494590Y-96321681D01*
X154216694Y-96436790D01*
X153966594Y-96603901D01*
X153753901Y-96816594D01*
X153586790Y-97066694D01*
X153471681Y-97344590D01*
X153468019Y-97363000D01*
X146226869Y-97363000D01*
X144638582Y-95774714D01*
X144638582Y-94450000D01*
X144632268Y-94385897D01*
X144613570Y-94324257D01*
X144583206Y-94267450D01*
X144542343Y-94217657D01*
X144492550Y-94176794D01*
X144435743Y-94146430D01*
X144374103Y-94127732D01*
X144310000Y-94121418D01*
X142710000Y-94121418D01*
X142701626Y-94122243D01*
X143074431Y-93749437D01*
X143181266Y-93793690D01*
X143399000Y-93837000D01*
X143621000Y-93837000D01*
X143838734Y-93793690D01*
X144043835Y-93708734D01*
X144228421Y-93585398D01*
X144385398Y-93428421D01*
X144508734Y-93243835D01*
X144593690Y-93038734D01*
X144637000Y-92821000D01*
X144637000Y-92599000D01*
X144593690Y-92381266D01*
X144508734Y-92176165D01*
X144385398Y-91991579D01*
X144228421Y-91834602D01*
X144043835Y-91711266D01*
X143838734Y-91626310D01*
X143621000Y-91583000D01*
X143399000Y-91583000D01*
X143181266Y-91626310D01*
X142976165Y-91711266D01*
X142791579Y-91834602D01*
X142634602Y-91991579D01*
X142511266Y-92176165D01*
X142426310Y-92381266D01*
X142383000Y-92599000D01*
X142383000Y-92821000D01*
X142426310Y-93038734D01*
X142470563Y-93145569D01*
X141010981Y-94605151D01*
X140953450Y-94535050D01*
X140866721Y-94463873D01*
X140767772Y-94410984D01*
X140660406Y-94378415D01*
X140548750Y-94367418D01*
X140195222Y-94367418D01*
X140255640Y-94276996D01*
X140302905Y-94162889D01*
X140327000Y-94041754D01*
X140327000Y-93918246D01*
X140302905Y-93797111D01*
X140255640Y-93683004D01*
X140187023Y-93580311D01*
X140137294Y-93530582D01*
X140548750Y-93530582D01*
X140660406Y-93519585D01*
X140767772Y-93487016D01*
X140866721Y-93434127D01*
X140953450Y-93362950D01*
X141024627Y-93276221D01*
X141077516Y-93177272D01*
X141110085Y-93069906D01*
X141121082Y-92958250D01*
X141121082Y-92929000D01*
X141157033Y-92929000D01*
X141178000Y-92931065D01*
X141198967Y-92929000D01*
X141198978Y-92929000D01*
X141261707Y-92922822D01*
X141342196Y-92898405D01*
X141416376Y-92858755D01*
X141481395Y-92805395D01*
X141494768Y-92789100D01*
X143074431Y-91209437D01*
X143181266Y-91253690D01*
X143399000Y-91297000D01*
X143621000Y-91297000D01*
X143838734Y-91253690D01*
X144043835Y-91168734D01*
X144228421Y-91045398D01*
X144385398Y-90888421D01*
X144508734Y-90703835D01*
X144593690Y-90498734D01*
X144637000Y-90281000D01*
X144637000Y-90059000D01*
X144593690Y-89841266D01*
X144508734Y-89636165D01*
X144385398Y-89451579D01*
X144228421Y-89294602D01*
X144043835Y-89171266D01*
X143838734Y-89086310D01*
X143621000Y-89043000D01*
X143399000Y-89043000D01*
X143181266Y-89086310D01*
X142976165Y-89171266D01*
X142791579Y-89294602D01*
X142634602Y-89451579D01*
X142511266Y-89636165D01*
X142426310Y-89841266D01*
X142383000Y-90059000D01*
X142383000Y-90281000D01*
X142426310Y-90498734D01*
X142470563Y-90605569D01*
X141112950Y-91963182D01*
X141110085Y-91934094D01*
X141077516Y-91826728D01*
X141024627Y-91727779D01*
X140953450Y-91641050D01*
X140866721Y-91569873D01*
X140767772Y-91516984D01*
X140660406Y-91484415D01*
X140548750Y-91473418D01*
X140061250Y-91473418D01*
X139949594Y-91484415D01*
X139842228Y-91516984D01*
X139743279Y-91569873D01*
X139656550Y-91641050D01*
X139585373Y-91727779D01*
X139541455Y-91809944D01*
X139538332Y-91778231D01*
X139513915Y-91697742D01*
X139495458Y-91663211D01*
X139474265Y-91623561D01*
X139434278Y-91574838D01*
X139420905Y-91558543D01*
X139404610Y-91545170D01*
X139174329Y-91314889D01*
X139160957Y-91298595D01*
X139095938Y-91245235D01*
X139021758Y-91205585D01*
X138941269Y-91181168D01*
X138878540Y-91174990D01*
X138878529Y-91174990D01*
X138857562Y-91172925D01*
X138836595Y-91174990D01*
X138296609Y-91174990D01*
X135047000Y-87925382D01*
X135047000Y-86561981D01*
X135065410Y-86558319D01*
X135343306Y-86443210D01*
X135593406Y-86276099D01*
X135806099Y-86063406D01*
X135973210Y-85813306D01*
X136088319Y-85535410D01*
X136147000Y-85240396D01*
X136147000Y-84939604D01*
X136088319Y-84644590D01*
X135973210Y-84366694D01*
X135806099Y-84116594D01*
X135593406Y-83903901D01*
X135343306Y-83736790D01*
X135065410Y-83621681D01*
X134770396Y-83563000D01*
X134469604Y-83563000D01*
X134174590Y-83621681D01*
X133896694Y-83736790D01*
X133646999Y-83903630D01*
X133646999Y-82341597D01*
X133675820Y-82357002D01*
X133795518Y-82393312D01*
X133920000Y-82405572D01*
X134334250Y-82402500D01*
X134493000Y-82243750D01*
X134493000Y-81407000D01*
X134473000Y-81407000D01*
X134473000Y-81153000D01*
X134493000Y-81153000D01*
X134493000Y-81133000D01*
X134747000Y-81133000D01*
X134747000Y-81153000D01*
X134767000Y-81153000D01*
X134767000Y-81407000D01*
X134747000Y-81407000D01*
X134747000Y-82243750D01*
X134905750Y-82402500D01*
X135320000Y-82405572D01*
X135444482Y-82393312D01*
X135564180Y-82357002D01*
X135674494Y-82298037D01*
X135771185Y-82218685D01*
X135850537Y-82121994D01*
X135909502Y-82011680D01*
X135945812Y-81891982D01*
X135958072Y-81767500D01*
X135955000Y-81565750D01*
X135796252Y-81407002D01*
X135955000Y-81407002D01*
X135955000Y-81379224D01*
X136652978Y-82077202D01*
X136652979Y-88260763D01*
X136650791Y-88282978D01*
X136659518Y-88371585D01*
X136685364Y-88456787D01*
X136685365Y-88456788D01*
X136727336Y-88535311D01*
X136783820Y-88604137D01*
X136801074Y-88618297D01*
X137613918Y-89431142D01*
X137613918Y-90064250D01*
X137624915Y-90175906D01*
X137657484Y-90283272D01*
X137710373Y-90382221D01*
X137781550Y-90468950D01*
X137868279Y-90540127D01*
X137967228Y-90593016D01*
X138074594Y-90625585D01*
X138186250Y-90636582D01*
X138673750Y-90636582D01*
X138785406Y-90625585D01*
X138892772Y-90593016D01*
X138991721Y-90540127D01*
X139078450Y-90468950D01*
X139149627Y-90382221D01*
X139180964Y-90323594D01*
X139191688Y-90432482D01*
X139227998Y-90552180D01*
X139286963Y-90662494D01*
X139366315Y-90759185D01*
X139463006Y-90838537D01*
X139573320Y-90897502D01*
X139693018Y-90933812D01*
X139817500Y-90946072D01*
X140019250Y-90943000D01*
X140178000Y-90784250D01*
X140178000Y-89735000D01*
X140432000Y-89735000D01*
X140432000Y-90784250D01*
X140590750Y-90943000D01*
X140792500Y-90946072D01*
X140916982Y-90933812D01*
X141036680Y-90897502D01*
X141146994Y-90838537D01*
X141243685Y-90759185D01*
X141323037Y-90662494D01*
X141382002Y-90552180D01*
X141418312Y-90432482D01*
X141430572Y-90308000D01*
X141427500Y-89893750D01*
X141268750Y-89735000D01*
X140432000Y-89735000D01*
X140178000Y-89735000D01*
X140158000Y-89735000D01*
X140158000Y-89481000D01*
X140178000Y-89481000D01*
X140178000Y-88431750D01*
X140432000Y-88431750D01*
X140432000Y-89481000D01*
X141268750Y-89481000D01*
X141427500Y-89322250D01*
X141430572Y-88908000D01*
X141418312Y-88783518D01*
X141382002Y-88663820D01*
X141323037Y-88553506D01*
X141243685Y-88456815D01*
X141146994Y-88377463D01*
X141036680Y-88318498D01*
X140916982Y-88282188D01*
X140792500Y-88269928D01*
X140590750Y-88273000D01*
X140432000Y-88431750D01*
X140178000Y-88431750D01*
X140019250Y-88273000D01*
X139817500Y-88269928D01*
X139694510Y-88282041D01*
X139694510Y-87606103D01*
X139743279Y-87646127D01*
X139842228Y-87699016D01*
X139949594Y-87731585D01*
X140061250Y-87742582D01*
X140548750Y-87742582D01*
X140660406Y-87731585D01*
X140767772Y-87699016D01*
X140866721Y-87646127D01*
X140953450Y-87574950D01*
X141024627Y-87488221D01*
X141077516Y-87389272D01*
X141110085Y-87281906D01*
X141121082Y-87170250D01*
X141121082Y-87141000D01*
X142417132Y-87141000D01*
X142470563Y-87194431D01*
X142426310Y-87301266D01*
X142383000Y-87519000D01*
X142383000Y-87741000D01*
X142426310Y-87958734D01*
X142511266Y-88163835D01*
X142634602Y-88348421D01*
X142791579Y-88505398D01*
X142976165Y-88628734D01*
X143181266Y-88713690D01*
X143399000Y-88757000D01*
X143621000Y-88757000D01*
X143838734Y-88713690D01*
X144043835Y-88628734D01*
X144228421Y-88505398D01*
X144385398Y-88348421D01*
X144508734Y-88163835D01*
X144585279Y-87979039D01*
X149738096Y-87979039D01*
X149778754Y-88113087D01*
X149898963Y-88367420D01*
X150066481Y-88593414D01*
X150274869Y-88782385D01*
X150516119Y-88927070D01*
X150780960Y-89021909D01*
X151002998Y-88900625D01*
X151002998Y-89046183D01*
X150801266Y-89086310D01*
X150596165Y-89171266D01*
X150411579Y-89294602D01*
X150254602Y-89451579D01*
X150131266Y-89636165D01*
X150046310Y-89841266D01*
X150003000Y-90059000D01*
X150003000Y-90281000D01*
X150046310Y-90498734D01*
X150131266Y-90703835D01*
X150254602Y-90888421D01*
X150411579Y-91045398D01*
X150596165Y-91168734D01*
X150801266Y-91253690D01*
X151019000Y-91297000D01*
X151241000Y-91297000D01*
X151458734Y-91253690D01*
X151663835Y-91168734D01*
X151848421Y-91045398D01*
X152005398Y-90888421D01*
X152128734Y-90703835D01*
X152213690Y-90498734D01*
X152257000Y-90281000D01*
X152257000Y-90059000D01*
X152213690Y-89841266D01*
X152128734Y-89636165D01*
X152005398Y-89451579D01*
X151848421Y-89294602D01*
X151663835Y-89171266D01*
X151458734Y-89086310D01*
X151257002Y-89046183D01*
X151257002Y-88900625D01*
X151479040Y-89021909D01*
X151743881Y-88927070D01*
X151985131Y-88782385D01*
X152193519Y-88593414D01*
X152361037Y-88367420D01*
X152481246Y-88113087D01*
X152521904Y-87979039D01*
X152399915Y-87757000D01*
X151257000Y-87757000D01*
X151257000Y-87777000D01*
X151003000Y-87777000D01*
X151003000Y-87757000D01*
X149860085Y-87757000D01*
X149738096Y-87979039D01*
X144585279Y-87979039D01*
X144593690Y-87958734D01*
X144637000Y-87741000D01*
X144637000Y-87519000D01*
X144593690Y-87301266D01*
X144585280Y-87280961D01*
X149738096Y-87280961D01*
X149860085Y-87503000D01*
X151003000Y-87503000D01*
X151003000Y-86359376D01*
X151257000Y-86359376D01*
X151257000Y-87503000D01*
X152399915Y-87503000D01*
X152521904Y-87280961D01*
X152481246Y-87146913D01*
X152361037Y-86892580D01*
X152193519Y-86666586D01*
X151985131Y-86477615D01*
X151743881Y-86332930D01*
X151479040Y-86238091D01*
X151257000Y-86359376D01*
X151003000Y-86359376D01*
X150780960Y-86238091D01*
X150516119Y-86332930D01*
X150274869Y-86477615D01*
X150066481Y-86666586D01*
X149898963Y-86892580D01*
X149778754Y-87146913D01*
X149738096Y-87280961D01*
X144585280Y-87280961D01*
X144508734Y-87096165D01*
X144385398Y-86911579D01*
X144228421Y-86754602D01*
X144043835Y-86631266D01*
X143838734Y-86546310D01*
X143621000Y-86503000D01*
X143399000Y-86503000D01*
X143181266Y-86546310D01*
X143074431Y-86590563D01*
X142910766Y-86426898D01*
X142897395Y-86410605D01*
X142832376Y-86357245D01*
X142758196Y-86317595D01*
X142677707Y-86293178D01*
X142614978Y-86287000D01*
X142614967Y-86287000D01*
X142594000Y-86284935D01*
X142573033Y-86287000D01*
X141121082Y-86287000D01*
X141121082Y-86257750D01*
X141110085Y-86146094D01*
X141077516Y-86038728D01*
X141024627Y-85939779D01*
X140953450Y-85853050D01*
X140866721Y-85781873D01*
X140767772Y-85728984D01*
X140660406Y-85696415D01*
X140548750Y-85685418D01*
X140061250Y-85685418D01*
X139949594Y-85696415D01*
X139842228Y-85728984D01*
X139743279Y-85781873D01*
X139694510Y-85821897D01*
X139694510Y-85145959D01*
X139817500Y-85158072D01*
X140019250Y-85155000D01*
X140178000Y-84996250D01*
X140178000Y-83947000D01*
X140432000Y-83947000D01*
X140432000Y-84996250D01*
X140590750Y-85155000D01*
X140792500Y-85158072D01*
X140916982Y-85145812D01*
X141036680Y-85109502D01*
X141146994Y-85050537D01*
X141243685Y-84971185D01*
X141323037Y-84874494D01*
X141382002Y-84764180D01*
X141418312Y-84644482D01*
X141430572Y-84520000D01*
X141427500Y-84105750D01*
X141268750Y-83947000D01*
X140432000Y-83947000D01*
X140178000Y-83947000D01*
X140158000Y-83947000D01*
X140158000Y-83693000D01*
X140178000Y-83693000D01*
X140178000Y-83673000D01*
X140432000Y-83673000D01*
X140432000Y-83693000D01*
X141268750Y-83693000D01*
X141388941Y-83572809D01*
X142875736Y-85059605D01*
X142889105Y-85075895D01*
X142905395Y-85089264D01*
X142905399Y-85089268D01*
X142954123Y-85129255D01*
X142985100Y-85145812D01*
X143028304Y-85168905D01*
X143108793Y-85193322D01*
X143171522Y-85199500D01*
X143171533Y-85199500D01*
X143192500Y-85201565D01*
X143213467Y-85199500D01*
X144553869Y-85199500D01*
X144562357Y-85209843D01*
X144612150Y-85250706D01*
X144668957Y-85281070D01*
X144730597Y-85299768D01*
X144794700Y-85306082D01*
X146394700Y-85306082D01*
X146458803Y-85299768D01*
X146520443Y-85281070D01*
X146577250Y-85250706D01*
X146627043Y-85209843D01*
X146667906Y-85160050D01*
X146698270Y-85103243D01*
X146716968Y-85041603D01*
X146723282Y-84977500D01*
X146723282Y-84567500D01*
X146716968Y-84503397D01*
X146702287Y-84455000D01*
X146716968Y-84406603D01*
X146723282Y-84342500D01*
X146723282Y-84252490D01*
X146741622Y-84243019D01*
X146839431Y-84165048D01*
X146920149Y-84069494D01*
X146980674Y-83960028D01*
X147018680Y-83840858D01*
X147029700Y-83739250D01*
X146870950Y-83580500D01*
X145721700Y-83580500D01*
X145721700Y-83603918D01*
X145467700Y-83603918D01*
X145467700Y-83580500D01*
X144318450Y-83580500D01*
X144188450Y-83710500D01*
X144004370Y-83710500D01*
X142389950Y-82096082D01*
X142696250Y-82096082D01*
X142807906Y-82085085D01*
X142915272Y-82052516D01*
X143014221Y-81999627D01*
X143100950Y-81928450D01*
X143172127Y-81841721D01*
X143225016Y-81742772D01*
X143257585Y-81635406D01*
X143268582Y-81523750D01*
X143268582Y-81389500D01*
X144466413Y-81389500D01*
X144466118Y-81392500D01*
X144466118Y-81802500D01*
X144472432Y-81866603D01*
X144487113Y-81915000D01*
X144472432Y-81963397D01*
X144466118Y-82027500D01*
X144466118Y-82437500D01*
X144472432Y-82501603D01*
X144487113Y-82549999D01*
X144472432Y-82598397D01*
X144466118Y-82662500D01*
X144466118Y-82752510D01*
X144447778Y-82761981D01*
X144349969Y-82839952D01*
X144269251Y-82935506D01*
X144208726Y-83044972D01*
X144170720Y-83164142D01*
X144159700Y-83265750D01*
X144318450Y-83424500D01*
X145467700Y-83424500D01*
X145467700Y-83401082D01*
X145721700Y-83401082D01*
X145721700Y-83424500D01*
X146870950Y-83424500D01*
X146975950Y-83319500D01*
X148138000Y-83319500D01*
X148138000Y-83486994D01*
X148135813Y-83509200D01*
X148144540Y-83597807D01*
X148159217Y-83646190D01*
X148170386Y-83683009D01*
X148212357Y-83761532D01*
X148268841Y-83830359D01*
X148286100Y-83844523D01*
X149517981Y-85076405D01*
X149532141Y-85093659D01*
X149600967Y-85150143D01*
X149636067Y-85168904D01*
X149679490Y-85192114D01*
X149764692Y-85217960D01*
X149853300Y-85226687D01*
X149875505Y-85224500D01*
X149888817Y-85224500D01*
X149920750Y-85250706D01*
X149977557Y-85281070D01*
X150039197Y-85299768D01*
X150103300Y-85306082D01*
X151703300Y-85306082D01*
X151767403Y-85299768D01*
X151829043Y-85281070D01*
X151885850Y-85250706D01*
X151935643Y-85209843D01*
X151976506Y-85160050D01*
X152006870Y-85103243D01*
X152025568Y-85041603D01*
X152031882Y-84977500D01*
X152031882Y-84567500D01*
X152025568Y-84503397D01*
X152010887Y-84455000D01*
X152025568Y-84406603D01*
X152031882Y-84342500D01*
X152031882Y-83932500D01*
X152025568Y-83868397D01*
X152010887Y-83820000D01*
X152025568Y-83771603D01*
X152031882Y-83707500D01*
X152031882Y-83297500D01*
X152031587Y-83294500D01*
X153784033Y-83294500D01*
X153805000Y-83296565D01*
X153825967Y-83294500D01*
X153825978Y-83294500D01*
X153888707Y-83288322D01*
X153906063Y-83283057D01*
X153909728Y-83285016D01*
X154017094Y-83317585D01*
X154128750Y-83328582D01*
X154616250Y-83328582D01*
X154643984Y-83325850D01*
X154881134Y-83563000D01*
X154789604Y-83563000D01*
X154494590Y-83621681D01*
X154216694Y-83736790D01*
X153966594Y-83903901D01*
X153753901Y-84116594D01*
X153586790Y-84366694D01*
X153471681Y-84644590D01*
X153413000Y-84939604D01*
X153413000Y-85240396D01*
X153471681Y-85535410D01*
X153586790Y-85813306D01*
X153753901Y-86063406D01*
X153966594Y-86276099D01*
X154216694Y-86443210D01*
X154494590Y-86558319D01*
X154789604Y-86617000D01*
X155090396Y-86617000D01*
X155385410Y-86558319D01*
X155482990Y-86517900D01*
X155482989Y-90293141D01*
X151565569Y-94210563D01*
X151458734Y-94166310D01*
X151241000Y-94123000D01*
X151019000Y-94123000D01*
X150801266Y-94166310D01*
X150596165Y-94251266D01*
X150556999Y-94277436D01*
X150556999Y-93886869D01*
X150694431Y-93749437D01*
X150801266Y-93793690D01*
X151019000Y-93837000D01*
X151241000Y-93837000D01*
X151458734Y-93793690D01*
X151663835Y-93708734D01*
X151848421Y-93585398D01*
X152005398Y-93428421D01*
X152128734Y-93243835D01*
X152213690Y-93038734D01*
X152257000Y-92821000D01*
X152257000Y-92599000D01*
X152213690Y-92381266D01*
X152128734Y-92176165D01*
X152005398Y-91991579D01*
X151848421Y-91834602D01*
X151663835Y-91711266D01*
X151458734Y-91626310D01*
X151241000Y-91583000D01*
X151019000Y-91583000D01*
X150801266Y-91626310D01*
X150596165Y-91711266D01*
X150411579Y-91834602D01*
X150254602Y-91991579D01*
X150131266Y-92176165D01*
X150046310Y-92381266D01*
X150003000Y-92599000D01*
X150003000Y-92821000D01*
X150046310Y-93038734D01*
X150090563Y-93145569D01*
X149842899Y-93393233D01*
X149826604Y-93406606D01*
X149813232Y-93422900D01*
X149813231Y-93422901D01*
X149773244Y-93471625D01*
X149752051Y-93511275D01*
X149733594Y-93545806D01*
X149709177Y-93626295D01*
X149702999Y-93689024D01*
X149702999Y-93689034D01*
X149700934Y-93710001D01*
X149702999Y-93730968D01*
X149703000Y-95709024D01*
X149700934Y-95730001D01*
X149703000Y-95750978D01*
X149703000Y-95750979D01*
X149709178Y-95813708D01*
X149727829Y-95875189D01*
X149733595Y-95894197D01*
X149773244Y-95968377D01*
X149813231Y-96017101D01*
X149813236Y-96017106D01*
X149826605Y-96033396D01*
X149842894Y-96046764D01*
X150333235Y-96537106D01*
X150346604Y-96553396D01*
X150362894Y-96566765D01*
X150362898Y-96566769D01*
X150411622Y-96606756D01*
X150422889Y-96612778D01*
X150485803Y-96646406D01*
X150566292Y-96670823D01*
X150629021Y-96677001D01*
X150629031Y-96677001D01*
X150649998Y-96679066D01*
X150670965Y-96677001D01*
X151589034Y-96677001D01*
X151610001Y-96679066D01*
X151630968Y-96677001D01*
X151630979Y-96677001D01*
X151693708Y-96670823D01*
X151774197Y-96646406D01*
X151848377Y-96606756D01*
X151913396Y-96553396D01*
X151926769Y-96537101D01*
X156497107Y-91966764D01*
X156513395Y-91953397D01*
X156526764Y-91937107D01*
X156526768Y-91937103D01*
X156566755Y-91888379D01*
X156595499Y-91834602D01*
X156606405Y-91814198D01*
X156630822Y-91733709D01*
X156637000Y-91670980D01*
X156637000Y-91670969D01*
X156639065Y-91650002D01*
X156637000Y-91629035D01*
X156637000Y-86493149D01*
X156927118Y-86203032D01*
X156943407Y-86189664D01*
X156956776Y-86173374D01*
X156956779Y-86173371D01*
X156996767Y-86124646D01*
X157036416Y-86050467D01*
X157036830Y-86049102D01*
X157060834Y-85969976D01*
X157067012Y-85907247D01*
X157067012Y-85907237D01*
X157069077Y-85886270D01*
X157067012Y-85865303D01*
X157067012Y-84314697D01*
X157069077Y-84293730D01*
X157067012Y-84272763D01*
X157067012Y-84272753D01*
X157060834Y-84210024D01*
X157036417Y-84129535D01*
X157005842Y-84072333D01*
X156996767Y-84055354D01*
X156956780Y-84006630D01*
X156956776Y-84006626D01*
X156943407Y-83990336D01*
X156927117Y-83976967D01*
X156585952Y-83635802D01*
X156735000Y-83638072D01*
X156859482Y-83625812D01*
X156979180Y-83589502D01*
X157089494Y-83530537D01*
X157186185Y-83451185D01*
X157265537Y-83354494D01*
X157324502Y-83244180D01*
X157360812Y-83124482D01*
X157373072Y-83000000D01*
X157370000Y-82585750D01*
X157211250Y-82427000D01*
X156374500Y-82427000D01*
X156374500Y-82447000D01*
X156120500Y-82447000D01*
X156120500Y-82427000D01*
X156100500Y-82427000D01*
X156100500Y-82173000D01*
X156120500Y-82173000D01*
X156120500Y-81123750D01*
X156083000Y-81086250D01*
X156083000Y-80137000D01*
X156337000Y-80137000D01*
X156337000Y-81186250D01*
X156374500Y-81223750D01*
X156374500Y-82173000D01*
X157211250Y-82173000D01*
X157370000Y-82014250D01*
X157373072Y-81600000D01*
X157360812Y-81475518D01*
X157324502Y-81355820D01*
X157265537Y-81245506D01*
X157186185Y-81148815D01*
X157169843Y-81135404D01*
X157228037Y-81064494D01*
X157287002Y-80954180D01*
X157323312Y-80834482D01*
X157335572Y-80710000D01*
X157332500Y-80295750D01*
X157173750Y-80137000D01*
X156337000Y-80137000D01*
X156083000Y-80137000D01*
X156063000Y-80137000D01*
X156063000Y-79883000D01*
X156083000Y-79883000D01*
X156083000Y-79863000D01*
X156337000Y-79863000D01*
X156337000Y-79883000D01*
X157173750Y-79883000D01*
X157332500Y-79724250D01*
X157335572Y-79310000D01*
X157323312Y-79185518D01*
X157287002Y-79065820D01*
X157228037Y-78955506D01*
X157155402Y-78867000D01*
X158448000Y-78867000D01*
X158448001Y-97663000D01*
%TD*%
M02*
