%TF.GenerationSoftware,KiCad,Pcbnew,(5.1.6)-1*%
%TF.CreationDate,2020-07-16T10:06:32+01:00*%
%TF.ProjectId,Jag_Speedy_VRConditioner,4a61675f-5370-4656-9564-795f5652436f,rev?*%
%TF.SameCoordinates,Original*%
%TF.FileFunction,Soldermask,Top*%
%TF.FilePolarity,Negative*%
%FSLAX46Y46*%
G04 Gerber Fmt 4.6, Leading zero omitted, Abs format (unit mm)*
G04 Created by KiCad (PCBNEW (5.1.6)-1) date 2020-07-16 10:06:32*
%MOMM*%
%LPD*%
G01*
G04 APERTURE LIST*
%ADD10O,2.500000X2.500000*%
%ADD11C,2.500000*%
%ADD12O,1.700000X1.700000*%
%ADD13R,1.700000X1.700000*%
%ADD14R,1.700000X0.510000*%
G04 APERTURE END LIST*
D10*
%TO.C,R8*%
X134620000Y-97790000D03*
D11*
X134620000Y-85090000D03*
%TD*%
D10*
%TO.C,R7*%
X154940000Y-85090000D03*
D11*
X154940000Y-97790000D03*
%TD*%
D12*
%TO.C,J1*%
X151130000Y-95250000D03*
X143510000Y-87630000D03*
X151130000Y-92710000D03*
X143510000Y-90170000D03*
X151130000Y-90170000D03*
X143510000Y-92710000D03*
X151130000Y-87630000D03*
D13*
X143510000Y-95250000D03*
%TD*%
D14*
%TO.C,IC1*%
X145594700Y-84772500D03*
X145594700Y-84137500D03*
X145594700Y-83502500D03*
X145594700Y-82867500D03*
X145594700Y-82232500D03*
X145594700Y-81597500D03*
X145594700Y-80962500D03*
X145594700Y-80327500D03*
X150903300Y-80327500D03*
X150903300Y-80962500D03*
X150903300Y-81597500D03*
X150903300Y-82232500D03*
X150903300Y-82867500D03*
X150903300Y-83502500D03*
X150903300Y-84137500D03*
X150903300Y-84772500D03*
%TD*%
%TO.C,C1*%
G36*
G01*
X138911250Y-79942500D02*
X137948750Y-79942500D01*
G75*
G02*
X137680000Y-79673750I0J268750D01*
G01*
X137680000Y-79136250D01*
G75*
G02*
X137948750Y-78867500I268750J0D01*
G01*
X138911250Y-78867500D01*
G75*
G02*
X139180000Y-79136250I0J-268750D01*
G01*
X139180000Y-79673750D01*
G75*
G02*
X138911250Y-79942500I-268750J0D01*
G01*
G37*
G36*
G01*
X138911250Y-81817500D02*
X137948750Y-81817500D01*
G75*
G02*
X137680000Y-81548750I0J268750D01*
G01*
X137680000Y-81011250D01*
G75*
G02*
X137948750Y-80742500I268750J0D01*
G01*
X138911250Y-80742500D01*
G75*
G02*
X139180000Y-81011250I0J-268750D01*
G01*
X139180000Y-81548750D01*
G75*
G02*
X138911250Y-81817500I-268750J0D01*
G01*
G37*
%TD*%
%TO.C,R6*%
G36*
G01*
X138967500Y-92020750D02*
X138967500Y-92983250D01*
G75*
G02*
X138698750Y-93252000I-268750J0D01*
G01*
X138161250Y-93252000D01*
G75*
G02*
X137892500Y-92983250I0J268750D01*
G01*
X137892500Y-92020750D01*
G75*
G02*
X138161250Y-91752000I268750J0D01*
G01*
X138698750Y-91752000D01*
G75*
G02*
X138967500Y-92020750I0J-268750D01*
G01*
G37*
G36*
G01*
X140842500Y-92020750D02*
X140842500Y-92983250D01*
G75*
G02*
X140573750Y-93252000I-268750J0D01*
G01*
X140036250Y-93252000D01*
G75*
G02*
X139767500Y-92983250I0J268750D01*
G01*
X139767500Y-92020750D01*
G75*
G02*
X140036250Y-91752000I268750J0D01*
G01*
X140573750Y-91752000D01*
G75*
G02*
X140842500Y-92020750I0J-268750D01*
G01*
G37*
%TD*%
%TO.C,R2*%
G36*
G01*
X155672500Y-80491250D02*
X155672500Y-79528750D01*
G75*
G02*
X155941250Y-79260000I268750J0D01*
G01*
X156478750Y-79260000D01*
G75*
G02*
X156747500Y-79528750I0J-268750D01*
G01*
X156747500Y-80491250D01*
G75*
G02*
X156478750Y-80760000I-268750J0D01*
G01*
X155941250Y-80760000D01*
G75*
G02*
X155672500Y-80491250I0J268750D01*
G01*
G37*
G36*
G01*
X153797500Y-80491250D02*
X153797500Y-79528750D01*
G75*
G02*
X154066250Y-79260000I268750J0D01*
G01*
X154603750Y-79260000D01*
G75*
G02*
X154872500Y-79528750I0J-268750D01*
G01*
X154872500Y-80491250D01*
G75*
G02*
X154603750Y-80760000I-268750J0D01*
G01*
X154066250Y-80760000D01*
G75*
G02*
X153797500Y-80491250I0J268750D01*
G01*
G37*
%TD*%
%TO.C,C5*%
G36*
G01*
X138967500Y-83338750D02*
X138967500Y-84301250D01*
G75*
G02*
X138698750Y-84570000I-268750J0D01*
G01*
X138161250Y-84570000D01*
G75*
G02*
X137892500Y-84301250I0J268750D01*
G01*
X137892500Y-83338750D01*
G75*
G02*
X138161250Y-83070000I268750J0D01*
G01*
X138698750Y-83070000D01*
G75*
G02*
X138967500Y-83338750I0J-268750D01*
G01*
G37*
G36*
G01*
X140842500Y-83338750D02*
X140842500Y-84301250D01*
G75*
G02*
X140573750Y-84570000I-268750J0D01*
G01*
X140036250Y-84570000D01*
G75*
G02*
X139767500Y-84301250I0J268750D01*
G01*
X139767500Y-83338750D01*
G75*
G02*
X140036250Y-83070000I268750J0D01*
G01*
X140573750Y-83070000D01*
G75*
G02*
X140842500Y-83338750I0J-268750D01*
G01*
G37*
%TD*%
%TO.C,C2*%
G36*
G01*
X142721250Y-79942500D02*
X141758750Y-79942500D01*
G75*
G02*
X141490000Y-79673750I0J268750D01*
G01*
X141490000Y-79136250D01*
G75*
G02*
X141758750Y-78867500I268750J0D01*
G01*
X142721250Y-78867500D01*
G75*
G02*
X142990000Y-79136250I0J-268750D01*
G01*
X142990000Y-79673750D01*
G75*
G02*
X142721250Y-79942500I-268750J0D01*
G01*
G37*
G36*
G01*
X142721250Y-81817500D02*
X141758750Y-81817500D01*
G75*
G02*
X141490000Y-81548750I0J268750D01*
G01*
X141490000Y-81011250D01*
G75*
G02*
X141758750Y-80742500I268750J0D01*
G01*
X142721250Y-80742500D01*
G75*
G02*
X142990000Y-81011250I0J-268750D01*
G01*
X142990000Y-81548750D01*
G75*
G02*
X142721250Y-81817500I-268750J0D01*
G01*
G37*
%TD*%
%TO.C,R5*%
G36*
G01*
X138967500Y-86232750D02*
X138967500Y-87195250D01*
G75*
G02*
X138698750Y-87464000I-268750J0D01*
G01*
X138161250Y-87464000D01*
G75*
G02*
X137892500Y-87195250I0J268750D01*
G01*
X137892500Y-86232750D01*
G75*
G02*
X138161250Y-85964000I268750J0D01*
G01*
X138698750Y-85964000D01*
G75*
G02*
X138967500Y-86232750I0J-268750D01*
G01*
G37*
G36*
G01*
X140842500Y-86232750D02*
X140842500Y-87195250D01*
G75*
G02*
X140573750Y-87464000I-268750J0D01*
G01*
X140036250Y-87464000D01*
G75*
G02*
X139767500Y-87195250I0J268750D01*
G01*
X139767500Y-86232750D01*
G75*
G02*
X140036250Y-85964000I268750J0D01*
G01*
X140573750Y-85964000D01*
G75*
G02*
X140842500Y-86232750I0J-268750D01*
G01*
G37*
%TD*%
%TO.C,R4*%
G36*
G01*
X137892500Y-98771250D02*
X137892500Y-97808750D01*
G75*
G02*
X138161250Y-97540000I268750J0D01*
G01*
X138698750Y-97540000D01*
G75*
G02*
X138967500Y-97808750I0J-268750D01*
G01*
X138967500Y-98771250D01*
G75*
G02*
X138698750Y-99040000I-268750J0D01*
G01*
X138161250Y-99040000D01*
G75*
G02*
X137892500Y-98771250I0J268750D01*
G01*
G37*
G36*
G01*
X139767500Y-98771250D02*
X139767500Y-97808750D01*
G75*
G02*
X140036250Y-97540000I268750J0D01*
G01*
X140573750Y-97540000D01*
G75*
G02*
X140842500Y-97808750I0J-268750D01*
G01*
X140842500Y-98771250D01*
G75*
G02*
X140573750Y-99040000I-268750J0D01*
G01*
X140036250Y-99040000D01*
G75*
G02*
X139767500Y-98771250I0J268750D01*
G01*
G37*
%TD*%
%TO.C,R3*%
G36*
G01*
X138967500Y-94914750D02*
X138967500Y-95877250D01*
G75*
G02*
X138698750Y-96146000I-268750J0D01*
G01*
X138161250Y-96146000D01*
G75*
G02*
X137892500Y-95877250I0J268750D01*
G01*
X137892500Y-94914750D01*
G75*
G02*
X138161250Y-94646000I268750J0D01*
G01*
X138698750Y-94646000D01*
G75*
G02*
X138967500Y-94914750I0J-268750D01*
G01*
G37*
G36*
G01*
X140842500Y-94914750D02*
X140842500Y-95877250D01*
G75*
G02*
X140573750Y-96146000I-268750J0D01*
G01*
X140036250Y-96146000D01*
G75*
G02*
X139767500Y-95877250I0J268750D01*
G01*
X139767500Y-94914750D01*
G75*
G02*
X140036250Y-94646000I268750J0D01*
G01*
X140573750Y-94646000D01*
G75*
G02*
X140842500Y-94914750I0J-268750D01*
G01*
G37*
%TD*%
%TO.C,R1*%
G36*
G01*
X155710000Y-82781250D02*
X155710000Y-81818750D01*
G75*
G02*
X155978750Y-81550000I268750J0D01*
G01*
X156516250Y-81550000D01*
G75*
G02*
X156785000Y-81818750I0J-268750D01*
G01*
X156785000Y-82781250D01*
G75*
G02*
X156516250Y-83050000I-268750J0D01*
G01*
X155978750Y-83050000D01*
G75*
G02*
X155710000Y-82781250I0J268750D01*
G01*
G37*
G36*
G01*
X153835000Y-82781250D02*
X153835000Y-81818750D01*
G75*
G02*
X154103750Y-81550000I268750J0D01*
G01*
X154641250Y-81550000D01*
G75*
G02*
X154910000Y-81818750I0J-268750D01*
G01*
X154910000Y-82781250D01*
G75*
G02*
X154641250Y-83050000I-268750J0D01*
G01*
X154103750Y-83050000D01*
G75*
G02*
X153835000Y-82781250I0J268750D01*
G01*
G37*
%TD*%
%TO.C,C4*%
G36*
G01*
X135101250Y-79942500D02*
X134138750Y-79942500D01*
G75*
G02*
X133870000Y-79673750I0J268750D01*
G01*
X133870000Y-79136250D01*
G75*
G02*
X134138750Y-78867500I268750J0D01*
G01*
X135101250Y-78867500D01*
G75*
G02*
X135370000Y-79136250I0J-268750D01*
G01*
X135370000Y-79673750D01*
G75*
G02*
X135101250Y-79942500I-268750J0D01*
G01*
G37*
G36*
G01*
X135101250Y-81817500D02*
X134138750Y-81817500D01*
G75*
G02*
X133870000Y-81548750I0J268750D01*
G01*
X133870000Y-81011250D01*
G75*
G02*
X134138750Y-80742500I268750J0D01*
G01*
X135101250Y-80742500D01*
G75*
G02*
X135370000Y-81011250I0J-268750D01*
G01*
X135370000Y-81548750D01*
G75*
G02*
X135101250Y-81817500I-268750J0D01*
G01*
G37*
%TD*%
%TO.C,C3*%
G36*
G01*
X138967500Y-89126750D02*
X138967500Y-90089250D01*
G75*
G02*
X138698750Y-90358000I-268750J0D01*
G01*
X138161250Y-90358000D01*
G75*
G02*
X137892500Y-90089250I0J268750D01*
G01*
X137892500Y-89126750D01*
G75*
G02*
X138161250Y-88858000I268750J0D01*
G01*
X138698750Y-88858000D01*
G75*
G02*
X138967500Y-89126750I0J-268750D01*
G01*
G37*
G36*
G01*
X140842500Y-89126750D02*
X140842500Y-90089250D01*
G75*
G02*
X140573750Y-90358000I-268750J0D01*
G01*
X140036250Y-90358000D01*
G75*
G02*
X139767500Y-90089250I0J268750D01*
G01*
X139767500Y-89126750D01*
G75*
G02*
X140036250Y-88858000I268750J0D01*
G01*
X140573750Y-88858000D01*
G75*
G02*
X140842500Y-89126750I0J-268750D01*
G01*
G37*
%TD*%
M02*
