%TF.GenerationSoftware,KiCad,Pcbnew,(5.1.6)-1*%
%TF.CreationDate,2020-07-16T10:06:32+01:00*%
%TF.ProjectId,Jag_Speedy_VRConditioner,4a61675f-5370-4656-9564-795f5652436f,rev?*%
%TF.SameCoordinates,Original*%
%TF.FileFunction,Legend,Top*%
%TF.FilePolarity,Positive*%
%FSLAX46Y46*%
G04 Gerber Fmt 4.6, Leading zero omitted, Abs format (unit mm)*
G04 Created by KiCad (PCBNEW (5.1.6)-1) date 2020-07-16 10:06:32*
%MOMM*%
%LPD*%
G01*
G04 APERTURE LIST*
%ADD10C,0.125000*%
%ADD11C,0.120000*%
%ADD12C,0.150000*%
G04 APERTURE END LIST*
D10*
X141498571Y-99262380D02*
X141570000Y-99286190D01*
X141689047Y-99286190D01*
X141736666Y-99262380D01*
X141760476Y-99238571D01*
X141784285Y-99190952D01*
X141784285Y-99143333D01*
X141760476Y-99095714D01*
X141736666Y-99071904D01*
X141689047Y-99048095D01*
X141593809Y-99024285D01*
X141546190Y-99000476D01*
X141522380Y-98976666D01*
X141498571Y-98929047D01*
X141498571Y-98881428D01*
X141522380Y-98833809D01*
X141546190Y-98810000D01*
X141593809Y-98786190D01*
X141712857Y-98786190D01*
X141784285Y-98810000D01*
X141998571Y-98952857D02*
X141998571Y-99452857D01*
X141998571Y-98976666D02*
X142046190Y-98952857D01*
X142141428Y-98952857D01*
X142189047Y-98976666D01*
X142212857Y-99000476D01*
X142236666Y-99048095D01*
X142236666Y-99190952D01*
X142212857Y-99238571D01*
X142189047Y-99262380D01*
X142141428Y-99286190D01*
X142046190Y-99286190D01*
X141998571Y-99262380D01*
X142641428Y-99262380D02*
X142593809Y-99286190D01*
X142498571Y-99286190D01*
X142450952Y-99262380D01*
X142427142Y-99214761D01*
X142427142Y-99024285D01*
X142450952Y-98976666D01*
X142498571Y-98952857D01*
X142593809Y-98952857D01*
X142641428Y-98976666D01*
X142665238Y-99024285D01*
X142665238Y-99071904D01*
X142427142Y-99119523D01*
X143070000Y-99262380D02*
X143022380Y-99286190D01*
X142927142Y-99286190D01*
X142879523Y-99262380D01*
X142855714Y-99214761D01*
X142855714Y-99024285D01*
X142879523Y-98976666D01*
X142927142Y-98952857D01*
X143022380Y-98952857D01*
X143070000Y-98976666D01*
X143093809Y-99024285D01*
X143093809Y-99071904D01*
X142855714Y-99119523D01*
X143522380Y-99286190D02*
X143522380Y-98786190D01*
X143522380Y-99262380D02*
X143474761Y-99286190D01*
X143379523Y-99286190D01*
X143331904Y-99262380D01*
X143308095Y-99238571D01*
X143284285Y-99190952D01*
X143284285Y-99048095D01*
X143308095Y-99000476D01*
X143331904Y-98976666D01*
X143379523Y-98952857D01*
X143474761Y-98952857D01*
X143522380Y-98976666D01*
X143974761Y-98952857D02*
X143974761Y-99286190D01*
X143760476Y-98952857D02*
X143760476Y-99214761D01*
X143784285Y-99262380D01*
X143831904Y-99286190D01*
X143903333Y-99286190D01*
X143950952Y-99262380D01*
X143974761Y-99238571D01*
X144212857Y-99286190D02*
X144212857Y-98952857D01*
X144212857Y-98786190D02*
X144189047Y-98810000D01*
X144212857Y-98833809D01*
X144236666Y-98810000D01*
X144212857Y-98786190D01*
X144212857Y-98833809D01*
X144450952Y-98952857D02*
X144450952Y-99286190D01*
X144450952Y-99000476D02*
X144474761Y-98976666D01*
X144522380Y-98952857D01*
X144593809Y-98952857D01*
X144641428Y-98976666D01*
X144665238Y-99024285D01*
X144665238Y-99286190D01*
X144974761Y-99286190D02*
X144927142Y-99262380D01*
X144903333Y-99238571D01*
X144879523Y-99190952D01*
X144879523Y-99048095D01*
X144903333Y-99000476D01*
X144927142Y-98976666D01*
X144974761Y-98952857D01*
X145046190Y-98952857D01*
X145093809Y-98976666D01*
X145117619Y-99000476D01*
X145141428Y-99048095D01*
X145141428Y-99190952D01*
X145117619Y-99238571D01*
X145093809Y-99262380D01*
X145046190Y-99286190D01*
X144974761Y-99286190D01*
X145736666Y-99286190D02*
X145736666Y-98786190D01*
X145855714Y-98786190D01*
X145927142Y-98810000D01*
X145974761Y-98857619D01*
X145998571Y-98905238D01*
X146022380Y-99000476D01*
X146022380Y-99071904D01*
X145998571Y-99167142D01*
X145974761Y-99214761D01*
X145927142Y-99262380D01*
X145855714Y-99286190D01*
X145736666Y-99286190D01*
X146450952Y-98952857D02*
X146450952Y-99286190D01*
X146236666Y-98952857D02*
X146236666Y-99214761D01*
X146260476Y-99262380D01*
X146308095Y-99286190D01*
X146379523Y-99286190D01*
X146427142Y-99262380D01*
X146450952Y-99238571D01*
X146903333Y-99286190D02*
X146903333Y-99024285D01*
X146879523Y-98976666D01*
X146831904Y-98952857D01*
X146736666Y-98952857D01*
X146689047Y-98976666D01*
X146903333Y-99262380D02*
X146855714Y-99286190D01*
X146736666Y-99286190D01*
X146689047Y-99262380D01*
X146665238Y-99214761D01*
X146665238Y-99167142D01*
X146689047Y-99119523D01*
X146736666Y-99095714D01*
X146855714Y-99095714D01*
X146903333Y-99071904D01*
X147212857Y-99286190D02*
X147165238Y-99262380D01*
X147141428Y-99214761D01*
X147141428Y-98786190D01*
X147712857Y-98786190D02*
X147879523Y-99286190D01*
X148046190Y-98786190D01*
X148498571Y-99286190D02*
X148331904Y-99048095D01*
X148212857Y-99286190D02*
X148212857Y-98786190D01*
X148403333Y-98786190D01*
X148450952Y-98810000D01*
X148474761Y-98833809D01*
X148498571Y-98881428D01*
X148498571Y-98952857D01*
X148474761Y-99000476D01*
X148450952Y-99024285D01*
X148403333Y-99048095D01*
X148212857Y-99048095D01*
X149379523Y-99238571D02*
X149355714Y-99262380D01*
X149284285Y-99286190D01*
X149236666Y-99286190D01*
X149165238Y-99262380D01*
X149117619Y-99214761D01*
X149093809Y-99167142D01*
X149070000Y-99071904D01*
X149070000Y-99000476D01*
X149093809Y-98905238D01*
X149117619Y-98857619D01*
X149165238Y-98810000D01*
X149236666Y-98786190D01*
X149284285Y-98786190D01*
X149355714Y-98810000D01*
X149379523Y-98833809D01*
X149665238Y-99286190D02*
X149617619Y-99262380D01*
X149593809Y-99238571D01*
X149570000Y-99190952D01*
X149570000Y-99048095D01*
X149593809Y-99000476D01*
X149617619Y-98976666D01*
X149665238Y-98952857D01*
X149736666Y-98952857D01*
X149784285Y-98976666D01*
X149808095Y-99000476D01*
X149831904Y-99048095D01*
X149831904Y-99190952D01*
X149808095Y-99238571D01*
X149784285Y-99262380D01*
X149736666Y-99286190D01*
X149665238Y-99286190D01*
X150046190Y-98952857D02*
X150046190Y-99286190D01*
X150046190Y-99000476D02*
X150070000Y-98976666D01*
X150117619Y-98952857D01*
X150189047Y-98952857D01*
X150236666Y-98976666D01*
X150260476Y-99024285D01*
X150260476Y-99286190D01*
X150712857Y-99286190D02*
X150712857Y-98786190D01*
X150712857Y-99262380D02*
X150665238Y-99286190D01*
X150570000Y-99286190D01*
X150522380Y-99262380D01*
X150498571Y-99238571D01*
X150474761Y-99190952D01*
X150474761Y-99048095D01*
X150498571Y-99000476D01*
X150522380Y-98976666D01*
X150570000Y-98952857D01*
X150665238Y-98952857D01*
X150712857Y-98976666D01*
X150950952Y-99286190D02*
X150950952Y-98952857D01*
X150950952Y-98786190D02*
X150927142Y-98810000D01*
X150950952Y-98833809D01*
X150974761Y-98810000D01*
X150950952Y-98786190D01*
X150950952Y-98833809D01*
X151117619Y-98952857D02*
X151308095Y-98952857D01*
X151189047Y-98786190D02*
X151189047Y-99214761D01*
X151212857Y-99262380D01*
X151260476Y-99286190D01*
X151308095Y-99286190D01*
X151474761Y-99286190D02*
X151474761Y-98952857D01*
X151474761Y-98786190D02*
X151450952Y-98810000D01*
X151474761Y-98833809D01*
X151498571Y-98810000D01*
X151474761Y-98786190D01*
X151474761Y-98833809D01*
X151784285Y-99286190D02*
X151736666Y-99262380D01*
X151712857Y-99238571D01*
X151689047Y-99190952D01*
X151689047Y-99048095D01*
X151712857Y-99000476D01*
X151736666Y-98976666D01*
X151784285Y-98952857D01*
X151855714Y-98952857D01*
X151903333Y-98976666D01*
X151927142Y-99000476D01*
X151950952Y-99048095D01*
X151950952Y-99190952D01*
X151927142Y-99238571D01*
X151903333Y-99262380D01*
X151855714Y-99286190D01*
X151784285Y-99286190D01*
X152165238Y-98952857D02*
X152165238Y-99286190D01*
X152165238Y-99000476D02*
X152189047Y-98976666D01*
X152236666Y-98952857D01*
X152308095Y-98952857D01*
X152355714Y-98976666D01*
X152379523Y-99024285D01*
X152379523Y-99286190D01*
X152808095Y-99262380D02*
X152760476Y-99286190D01*
X152665238Y-99286190D01*
X152617619Y-99262380D01*
X152593809Y-99214761D01*
X152593809Y-99024285D01*
X152617619Y-98976666D01*
X152665238Y-98952857D01*
X152760476Y-98952857D01*
X152808095Y-98976666D01*
X152831904Y-99024285D01*
X152831904Y-99071904D01*
X152593809Y-99119523D01*
X153046190Y-99286190D02*
X153046190Y-98952857D01*
X153046190Y-99048095D02*
X153070000Y-99000476D01*
X153093809Y-98976666D01*
X153141428Y-98952857D01*
X153189047Y-98952857D01*
D11*
%TO.C,R8*%
X132700000Y-96510000D02*
X133180000Y-96510000D01*
X132700000Y-86370000D02*
X132700000Y-96510000D01*
X133180000Y-86370000D02*
X132700000Y-86370000D01*
X136540000Y-96510000D02*
X136060000Y-96510000D01*
X136540000Y-86370000D02*
X136540000Y-96510000D01*
X136060000Y-86370000D02*
X136540000Y-86370000D01*
%TO.C,R7*%
X156860000Y-86370000D02*
X156380000Y-86370000D01*
X156860000Y-96510000D02*
X156860000Y-86370000D01*
X156380000Y-96510000D02*
X156860000Y-96510000D01*
X153020000Y-86370000D02*
X153500000Y-86370000D01*
X153020000Y-96510000D02*
X153020000Y-86370000D01*
X153500000Y-96510000D02*
X153020000Y-96510000D01*
D12*
%TO.C,IC1*%
X151774000Y-85275000D02*
X146390400Y-85275000D01*
X150103300Y-79875000D02*
X146394700Y-79875000D01*
D11*
%TO.C,C1*%
X139140000Y-80601078D02*
X139140000Y-80083922D01*
X137720000Y-80601078D02*
X137720000Y-80083922D01*
%TO.C,R6*%
X139626078Y-91792000D02*
X139108922Y-91792000D01*
X139626078Y-93212000D02*
X139108922Y-93212000D01*
%TO.C,R2*%
X155013922Y-80720000D02*
X155531078Y-80720000D01*
X155013922Y-79300000D02*
X155531078Y-79300000D01*
%TO.C,C5*%
X139626078Y-83110000D02*
X139108922Y-83110000D01*
X139626078Y-84530000D02*
X139108922Y-84530000D01*
%TO.C,C2*%
X142950000Y-80601078D02*
X142950000Y-80083922D01*
X141530000Y-80601078D02*
X141530000Y-80083922D01*
%TO.C,R5*%
X139626078Y-86004000D02*
X139108922Y-86004000D01*
X139626078Y-87424000D02*
X139108922Y-87424000D01*
%TO.C,R4*%
X139108922Y-97580000D02*
X139626078Y-97580000D01*
X139108922Y-99000000D02*
X139626078Y-99000000D01*
%TO.C,R3*%
X139626078Y-94686000D02*
X139108922Y-94686000D01*
X139626078Y-96106000D02*
X139108922Y-96106000D01*
%TO.C,R1*%
X155051422Y-83010000D02*
X155568578Y-83010000D01*
X155051422Y-81590000D02*
X155568578Y-81590000D01*
%TO.C,C4*%
X135330000Y-80601078D02*
X135330000Y-80083922D01*
X133910000Y-80601078D02*
X133910000Y-80083922D01*
%TO.C,C3*%
X139626078Y-88898000D02*
X139108922Y-88898000D01*
X139626078Y-90318000D02*
X139108922Y-90318000D01*
%TO.C,R8*%
D12*
X135072380Y-87796666D02*
X134596190Y-88130000D01*
X135072380Y-88368095D02*
X134072380Y-88368095D01*
X134072380Y-87987142D01*
X134120000Y-87891904D01*
X134167619Y-87844285D01*
X134262857Y-87796666D01*
X134405714Y-87796666D01*
X134500952Y-87844285D01*
X134548571Y-87891904D01*
X134596190Y-87987142D01*
X134596190Y-88368095D01*
X134500952Y-87225238D02*
X134453333Y-87320476D01*
X134405714Y-87368095D01*
X134310476Y-87415714D01*
X134262857Y-87415714D01*
X134167619Y-87368095D01*
X134120000Y-87320476D01*
X134072380Y-87225238D01*
X134072380Y-87034761D01*
X134120000Y-86939523D01*
X134167619Y-86891904D01*
X134262857Y-86844285D01*
X134310476Y-86844285D01*
X134405714Y-86891904D01*
X134453333Y-86939523D01*
X134500952Y-87034761D01*
X134500952Y-87225238D01*
X134548571Y-87320476D01*
X134596190Y-87368095D01*
X134691428Y-87415714D01*
X134881904Y-87415714D01*
X134977142Y-87368095D01*
X135024761Y-87320476D01*
X135072380Y-87225238D01*
X135072380Y-87034761D01*
X135024761Y-86939523D01*
X134977142Y-86891904D01*
X134881904Y-86844285D01*
X134691428Y-86844285D01*
X134596190Y-86891904D01*
X134548571Y-86939523D01*
X134500952Y-87034761D01*
%TO.C,R7*%
X155392380Y-95416666D02*
X154916190Y-95750000D01*
X155392380Y-95988095D02*
X154392380Y-95988095D01*
X154392380Y-95607142D01*
X154440000Y-95511904D01*
X154487619Y-95464285D01*
X154582857Y-95416666D01*
X154725714Y-95416666D01*
X154820952Y-95464285D01*
X154868571Y-95511904D01*
X154916190Y-95607142D01*
X154916190Y-95988095D01*
X154392380Y-95083333D02*
X154392380Y-94416666D01*
X155392380Y-94845238D01*
%TO.C,IC1*%
X147272809Y-83002380D02*
X147272809Y-82002380D01*
X148320428Y-82907142D02*
X148272809Y-82954761D01*
X148129952Y-83002380D01*
X148034714Y-83002380D01*
X147891857Y-82954761D01*
X147796619Y-82859523D01*
X147749000Y-82764285D01*
X147701380Y-82573809D01*
X147701380Y-82430952D01*
X147749000Y-82240476D01*
X147796619Y-82145238D01*
X147891857Y-82050000D01*
X148034714Y-82002380D01*
X148129952Y-82002380D01*
X148272809Y-82050000D01*
X148320428Y-82097619D01*
X149272809Y-83002380D02*
X148701380Y-83002380D01*
X148987095Y-83002380D02*
X148987095Y-82002380D01*
X148891857Y-82145238D01*
X148796619Y-82240476D01*
X148701380Y-82288095D01*
%TO.C,C1*%
X138072857Y-79843333D02*
X138025238Y-79795714D01*
X137977619Y-79652857D01*
X137977619Y-79557619D01*
X138025238Y-79414761D01*
X138120476Y-79319523D01*
X138215714Y-79271904D01*
X138406190Y-79224285D01*
X138549047Y-79224285D01*
X138739523Y-79271904D01*
X138834761Y-79319523D01*
X138930000Y-79414761D01*
X138977619Y-79557619D01*
X138977619Y-79652857D01*
X138930000Y-79795714D01*
X138882380Y-79843333D01*
X137977619Y-80795714D02*
X137977619Y-80224285D01*
X137977619Y-80510000D02*
X138977619Y-80510000D01*
X138834761Y-80414761D01*
X138739523Y-80319523D01*
X138691904Y-80224285D01*
%TO.C,R6*%
X139254583Y-92954380D02*
X138921250Y-92478190D01*
X138683154Y-92954380D02*
X138683154Y-91954380D01*
X139064107Y-91954380D01*
X139159345Y-92002000D01*
X139206964Y-92049619D01*
X139254583Y-92144857D01*
X139254583Y-92287714D01*
X139206964Y-92382952D01*
X139159345Y-92430571D01*
X139064107Y-92478190D01*
X138683154Y-92478190D01*
X140111726Y-91954380D02*
X139921250Y-91954380D01*
X139826011Y-92002000D01*
X139778392Y-92049619D01*
X139683154Y-92192476D01*
X139635535Y-92382952D01*
X139635535Y-92763904D01*
X139683154Y-92859142D01*
X139730773Y-92906761D01*
X139826011Y-92954380D01*
X140016488Y-92954380D01*
X140111726Y-92906761D01*
X140159345Y-92859142D01*
X140206964Y-92763904D01*
X140206964Y-92525809D01*
X140159345Y-92430571D01*
X140111726Y-92382952D01*
X140016488Y-92335333D01*
X139826011Y-92335333D01*
X139730773Y-92382952D01*
X139683154Y-92430571D01*
X139635535Y-92525809D01*
%TO.C,R2*%
X154452023Y-80462380D02*
X154118690Y-79986190D01*
X153880594Y-80462380D02*
X153880594Y-79462380D01*
X154261547Y-79462380D01*
X154356785Y-79510000D01*
X154404404Y-79557619D01*
X154452023Y-79652857D01*
X154452023Y-79795714D01*
X154404404Y-79890952D01*
X154356785Y-79938571D01*
X154261547Y-79986190D01*
X153880594Y-79986190D01*
X154832975Y-79557619D02*
X154880594Y-79510000D01*
X154975832Y-79462380D01*
X155213928Y-79462380D01*
X155309166Y-79510000D01*
X155356785Y-79557619D01*
X155404404Y-79652857D01*
X155404404Y-79748095D01*
X155356785Y-79890952D01*
X154785356Y-80462380D01*
X155404404Y-80462380D01*
%TO.C,C5*%
X139533333Y-84177142D02*
X139485714Y-84224761D01*
X139342857Y-84272380D01*
X139247619Y-84272380D01*
X139104761Y-84224761D01*
X139009523Y-84129523D01*
X138961904Y-84034285D01*
X138914285Y-83843809D01*
X138914285Y-83700952D01*
X138961904Y-83510476D01*
X139009523Y-83415238D01*
X139104761Y-83320000D01*
X139247619Y-83272380D01*
X139342857Y-83272380D01*
X139485714Y-83320000D01*
X139533333Y-83367619D01*
X140438095Y-83272380D02*
X139961904Y-83272380D01*
X139914285Y-83748571D01*
X139961904Y-83700952D01*
X140057142Y-83653333D01*
X140295238Y-83653333D01*
X140390476Y-83700952D01*
X140438095Y-83748571D01*
X140485714Y-83843809D01*
X140485714Y-84081904D01*
X140438095Y-84177142D01*
X140390476Y-84224761D01*
X140295238Y-84272380D01*
X140057142Y-84272380D01*
X139961904Y-84224761D01*
X139914285Y-84177142D01*
%TO.C,C2*%
X142597142Y-80841666D02*
X142644761Y-80889285D01*
X142692380Y-81032142D01*
X142692380Y-81127380D01*
X142644761Y-81270238D01*
X142549523Y-81365476D01*
X142454285Y-81413095D01*
X142263809Y-81460714D01*
X142120952Y-81460714D01*
X141930476Y-81413095D01*
X141835238Y-81365476D01*
X141740000Y-81270238D01*
X141692380Y-81127380D01*
X141692380Y-81032142D01*
X141740000Y-80889285D01*
X141787619Y-80841666D01*
X141787619Y-80460714D02*
X141740000Y-80413095D01*
X141692380Y-80317857D01*
X141692380Y-80079761D01*
X141740000Y-79984523D01*
X141787619Y-79936904D01*
X141882857Y-79889285D01*
X141978095Y-79889285D01*
X142120952Y-79936904D01*
X142692380Y-80508333D01*
X142692380Y-79889285D01*
%TO.C,R5*%
X139533333Y-87166380D02*
X139200000Y-86690190D01*
X138961904Y-87166380D02*
X138961904Y-86166380D01*
X139342857Y-86166380D01*
X139438095Y-86214000D01*
X139485714Y-86261619D01*
X139533333Y-86356857D01*
X139533333Y-86499714D01*
X139485714Y-86594952D01*
X139438095Y-86642571D01*
X139342857Y-86690190D01*
X138961904Y-86690190D01*
X140438095Y-86166380D02*
X139961904Y-86166380D01*
X139914285Y-86642571D01*
X139961904Y-86594952D01*
X140057142Y-86547333D01*
X140295238Y-86547333D01*
X140390476Y-86594952D01*
X140438095Y-86642571D01*
X140485714Y-86737809D01*
X140485714Y-86975904D01*
X140438095Y-87071142D01*
X140390476Y-87118761D01*
X140295238Y-87166380D01*
X140057142Y-87166380D01*
X139961904Y-87118761D01*
X139914285Y-87071142D01*
%TO.C,R4*%
X138760833Y-98742380D02*
X138427500Y-98266190D01*
X138189404Y-98742380D02*
X138189404Y-97742380D01*
X138570357Y-97742380D01*
X138665595Y-97790000D01*
X138713214Y-97837619D01*
X138760833Y-97932857D01*
X138760833Y-98075714D01*
X138713214Y-98170952D01*
X138665595Y-98218571D01*
X138570357Y-98266190D01*
X138189404Y-98266190D01*
X139617976Y-98075714D02*
X139617976Y-98742380D01*
X139379880Y-97694761D02*
X139141785Y-98409047D01*
X139760833Y-98409047D01*
%TO.C,R3*%
X139533333Y-95848380D02*
X139200000Y-95372190D01*
X138961904Y-95848380D02*
X138961904Y-94848380D01*
X139342857Y-94848380D01*
X139438095Y-94896000D01*
X139485714Y-94943619D01*
X139533333Y-95038857D01*
X139533333Y-95181714D01*
X139485714Y-95276952D01*
X139438095Y-95324571D01*
X139342857Y-95372190D01*
X138961904Y-95372190D01*
X139866666Y-94848380D02*
X140485714Y-94848380D01*
X140152380Y-95229333D01*
X140295238Y-95229333D01*
X140390476Y-95276952D01*
X140438095Y-95324571D01*
X140485714Y-95419809D01*
X140485714Y-95657904D01*
X140438095Y-95753142D01*
X140390476Y-95800761D01*
X140295238Y-95848380D01*
X140009523Y-95848380D01*
X139914285Y-95800761D01*
X139866666Y-95753142D01*
%TO.C,R1*%
X155475833Y-82752380D02*
X155142500Y-82276190D01*
X154904404Y-82752380D02*
X154904404Y-81752380D01*
X155285357Y-81752380D01*
X155380595Y-81800000D01*
X155428214Y-81847619D01*
X155475833Y-81942857D01*
X155475833Y-82085714D01*
X155428214Y-82180952D01*
X155380595Y-82228571D01*
X155285357Y-82276190D01*
X154904404Y-82276190D01*
X156428214Y-82752380D02*
X155856785Y-82752380D01*
X156142500Y-82752380D02*
X156142500Y-81752380D01*
X156047261Y-81895238D01*
X155952023Y-81990476D01*
X155856785Y-82038095D01*
%TO.C,C4*%
X134977142Y-80069166D02*
X135024761Y-80116785D01*
X135072380Y-80259642D01*
X135072380Y-80354880D01*
X135024761Y-80497738D01*
X134929523Y-80592976D01*
X134834285Y-80640595D01*
X134643809Y-80688214D01*
X134500952Y-80688214D01*
X134310476Y-80640595D01*
X134215238Y-80592976D01*
X134120000Y-80497738D01*
X134072380Y-80354880D01*
X134072380Y-80259642D01*
X134120000Y-80116785D01*
X134167619Y-80069166D01*
X134405714Y-79212023D02*
X135072380Y-79212023D01*
X134024761Y-79450119D02*
X134739047Y-79688214D01*
X134739047Y-79069166D01*
%TO.C,C3*%
X139533333Y-89965142D02*
X139485714Y-90012761D01*
X139342857Y-90060380D01*
X139247619Y-90060380D01*
X139104761Y-90012761D01*
X139009523Y-89917523D01*
X138961904Y-89822285D01*
X138914285Y-89631809D01*
X138914285Y-89488952D01*
X138961904Y-89298476D01*
X139009523Y-89203238D01*
X139104761Y-89108000D01*
X139247619Y-89060380D01*
X139342857Y-89060380D01*
X139485714Y-89108000D01*
X139533333Y-89155619D01*
X139866666Y-89060380D02*
X140485714Y-89060380D01*
X140152380Y-89441333D01*
X140295238Y-89441333D01*
X140390476Y-89488952D01*
X140438095Y-89536571D01*
X140485714Y-89631809D01*
X140485714Y-89869904D01*
X140438095Y-89965142D01*
X140390476Y-90012761D01*
X140295238Y-90060380D01*
X140009523Y-90060380D01*
X139914285Y-90012761D01*
X139866666Y-89965142D01*
%TD*%
M02*
